<svg xmlns="http://www.w3.org/2000/svg" viewBox="0 0 750 500"><g id="freepik--background-complete--inject-60"><rect x="637.61" y="265.15" width="26.48" height="11.19" style="fill:#ebebeb"></rect><rect x="637.61" y="36.76" width="26.48" height="11.19" style="fill:#ebebeb"></rect><rect x="652.38" y="50.87" width="26.48" height="11.19" style="fill:#ebebeb"></rect><rect x="71.14" y="36.78" width="26.48" height="11.19" style="fill:#ebebeb"></rect><rect x="224.59" y="159.45" width="26.48" height="11.19" transform="translate(475.66 330.1) rotate(180)" style="fill:#ebebeb"></rect><rect x="239.36" y="145.34" width="26.48" height="11.19" transform="translate(505.2 301.88) rotate(180)" style="fill:#ebebeb"></rect></g><g id="freepik--Floor--inject-60"><polygon points="46.67 368.91 128.75 368.67 210.84 368.58 375 368.41 539.16 368.58 621.25 368.67 703.33 368.91 621.25 369.15 539.16 369.24 375 369.41 210.84 369.24 128.75 369.15 46.67 368.91" style="fill:#263238"></polygon></g><g id="freepik--Shadow--inject-60"><ellipse cx="375" cy="431.21" rx="284.76" ry="25.24" style="fill:#ebebeb"></ellipse></g><g id="freepik--Plant--inject-60"><path d="M120.18,291.44s21.15-4.8,32.75-15.49S171,246.12,171,246.12a182.74,182.74,0,0,0-23.73,6.24c-1.89,2-5.5,6.2-7.18,10.15a48.61,48.61,0,0,1-.06-7.26,32.19,32.19,0,0,0-7.53,4.58C122.89,268.24,120.18,291.44,120.18,291.44Z" style="fill:#FFC100"></path><path d="M157.8,255.43c2.88-2,5.82-3.92,8.69-5.94a.17.17,0,0,0-.18-.28c-5.45,3.26-10.82,6.74-16,10.38-1.82,1.28-3.6,2.6-5.36,4,.13-.21.25-.42.37-.63.64-1.06,1.31-2.11,2-3.15a45.27,45.27,0,0,1,4.5-6c.06-.07-.05-.17-.11-.1-1.64,1.9-3.29,3.78-4.79,5.79-.72,1-1.38,2-2,3-.33.52-.65,1.06-1,1.6-.11.18-.22.36-.32.54-2.74,2.15-5.4,4.39-8,6.76-1.56,1.46-3.08,3-4.54,4.54.82-2.56,1.53-5.15,2.48-7.67,0-.09-.11-.12-.14,0-.92,2.65-1.93,5.31-2.64,8-1.62,1.75-3.17,3.57-4.63,5.46,0-.12,0-.23.08-.35.24-1,.49-2,.75-3,.52-1.91,1.08-3.82,1.72-5.69a33.23,33.23,0,0,1,5.69-10.74c.06-.07,0-.17-.11-.1-4.13,4.9-6.55,10.76-8.1,16.92-.23.91-.44,1.81-.64,2.72-.11.48-.24,1-.32,1.46-.64.86-1.27,1.74-1.87,2.63a91.6,91.6,0,0,0-9,17.56,200.73,200.73,0,0,0-6.78,21.14.11.11,0,1,0,.21.05c4.14-12.38,8.37-24.94,15.45-36,1.5-2.34,3.12-4.59,4.83-6.76a40.5,40.5,0,0,0,10.29-2.05,45.63,45.63,0,0,0,10.31-5,62.69,62.69,0,0,0,5.29-4,.07.07,0,1,0-.09-.11,42,42,0,0,1-9.7,5.87,52.72,52.72,0,0,1-10.67,3.58c-1.56.34-3.15.59-4.73.81a86.84,86.84,0,0,1,6.24-6.91c.71-.72,1.45-1.4,2.18-2.09a51,51,0,0,1,7.83-4.48c3.46-1.67,6.87-3.45,10.31-5.19,1.93-1,3.85-2,5.81-2.95.08,0,0-.16-.08-.12-3.48,1.68-7,3.25-10.52,4.86-3.3,1.51-6.65,3-9.82,4.81l-.39.24c2.86-2.5,5.83-4.88,8.86-7.17C152.06,259.5,154.9,257.43,157.8,255.43Z" style="fill:#263238"></path><path d="M156.59,266.34c-1.72.75-3.47,1.42-5.17,2.22a56.56,56.56,0,0,0-5.08,2.76c-.07,0,0,.14.07.11,1.69-.81,3.4-1.56,5.07-2.4s3.4-1.79,5.15-2.55C156.72,266.44,156.68,266.3,156.59,266.34Z" style="fill:#263238"></path><path d="M51.44,184.81a30.2,30.2,0,0,1,6.32,17.57c.07,1.9-.23,4.54-.45,7.65,7.89,4.21,13.81,11.8,13.81,11.8-4.48-2.69-10.63-3.78-14-3.34a40.51,40.51,0,0,0,.81,6.32c1.46-.08,4.29.12,9,1.78a20,20,0,0,0-8.09,1.61c3.77,12,15,24.32,45.94,29.56a65,65,0,0,0-5.48-43.57C90,196,51.44,184.81,51.44,184.81Z" style="fill:#FFC100"></path><path d="M115.52,309.1c-.54-5.12-1.22-10.24-2-15.33a306.52,306.52,0,0,0-6.24-30.3,120.88,120.88,0,0,0-4.47-13.81,20.67,20.67,0,0,0,.11-2.48c0-1,0-2,0-3q0-3-.29-5.93a69.93,69.93,0,0,0-1.9-11.61c-.56-2.21-1.22-4.38-1.87-6.56a.07.07,0,0,0-.14,0A84.23,84.23,0,0,1,101,231.73a110,110,0,0,1,1,11.61c0,1.07.06,2.13.06,3.2,0,.45,0,.91,0,1.37a98.33,98.33,0,0,0-5.21-10.8,130.61,130.61,0,0,0-10.6-15.85,7.31,7.31,0,0,0-.25-1.74c-.15-.69-.3-1.38-.46-2.07-.31-1.41-.67-2.82-1-4.22-.77-2.8-1.79-5.51-2.66-8.28,0-.09-.17,0-.14,0,.82,2.74,1.36,5.58,2,8.37.31,1.38.61,2.76.91,4.15.16.69.3,1.38.45,2.07,0,0,0,.11,0,.16-1.25-1.58-2.52-3.14-3.83-4.67-5.91-6.93-12.39-13.33-18.92-19.68-.8-.78-1.62-1.54-2.43-2.31-.07-.06-.17,0-.1.1,6.23,6.51,12.37,13.09,18.18,20,1.38,1.64,2.75,3.3,4.08,5L80,216.72c-1.8-1.18-3.63-2.32-5.5-3.37s-3.78-2.09-5.71-3-4.1-1.79-6-2.9c-.08,0-.15.09-.07.13a43.78,43.78,0,0,1,5.65,3.12c1.89,1.12,3.77,2.25,5.62,3.42s3.64,2.29,5.45,3.47c1.51,1,3,2,4.55,2.95a146.38,146.38,0,0,1,9.92,14.43A106.32,106.32,0,0,1,99,244.66l-1.11-.48L95,242.92c-1.82-.81-3.65-1.6-5.47-2.39-3.48-1.51-7-2.9-10.41-4.56a48.53,48.53,0,0,1-5.56-3.08c-.07-.06-.14.07-.07.12C79.86,237.39,87,240.47,94,243.58l3,1.35c.84.37,1.67.78,2.54,1.1a109.26,109.26,0,0,1,5.23,14.35,291.87,291.87,0,0,1,6.74,29.95c1.77,10.11,3,20.29,3.9,30.51.12,1.28.23,2.55.38,3.83a.41.41,0,0,0,.81,0C116.59,319.46,116.06,314.26,115.52,309.1Z" style="fill:#263238"></path><path d="M96.68,223.61c-.57-3.15-1.41-6.23-2.25-9.31a.07.07,0,0,0-.14,0c.78,3,1.34,6.11,1.91,9.18s1.09,6.27,1.53,9.42c0,.06.09.06.09,0A83.67,83.67,0,0,0,96.68,223.61Z" style="fill:#263238"></path><path d="M83.34,232.14a57.73,57.73,0,0,0-6.73-3.79c-1.13-.58-2.27-1.13-3.42-1.69s-2.4-1-3.57-1.63c-.08,0-.15.08-.07.12,1.13.57,2.21,1.26,3.32,1.87l3.44,1.88c2.26,1.21,4.49,2.56,6.86,3.55A.18.18,0,0,0,83.34,232.14Z" style="fill:#263238"></path><path d="M120.56,254.78s19.58-4.67,28.57-17.81c8.58-12.54,11.36-33.92,11.58-35.8-.35,1.72-4.39,20.41-17.72,29.11C132.78,237,122.92,242.44,120.56,254.78Z" style="fill:#263238;opacity:0.1"></path><path d="M138.63,221a25.07,25.07,0,0,0-7.22,11.89s.05.06.06,0a29.2,29.2,0,0,1,7.26-11.8C138.79,221,138.7,220.89,138.63,221Z" style="fill:#263238"></path><path d="M120.56,254.78s19.58-4.67,28.57-17.81c8.58-12.54,11.36-33.92,11.58-35.8a.72.72,0,0,0,0-.14s-9.39,13.35-19.26,16.76S117.73,233,120.56,254.78Z" style="fill:#FFC100"></path><path d="M157.26,208.4a79.92,79.92,0,0,1-6,10.35,41.56,41.56,0,0,1-8.05,8.28c-2.66,2.12-5.48,4-8.17,6.1l.06-.1c.51-.75,1-1.47,1.61-2.19,1.12-1.43,2.34-2.78,3.57-4.12,2.44-2.64,4.92-5.23,7.1-8.09a29.57,29.57,0,0,0,3.14-5c0-.09-.09-.13-.13-.05-3.18,6.62-9.52,10.85-14.05,16.44-.64.8-1.25,1.62-1.81,2.48a9.91,9.91,0,0,0-1.12,2,40.25,40.25,0,0,0-6.68,6.75,26.66,26.66,0,0,1,.78-3.8,19.17,19.17,0,0,1,2.08-5c.05-.08-.08-.16-.12-.08a23.5,23.5,0,0,0-2.29,4.93,17.42,17.42,0,0,0-.71,4.22v0a39.41,39.41,0,0,0-2.65,4.11c.09-.42.17-.84.25-1.25.39-2,.82-3.9,1.32-5.83a35.14,35.14,0,0,1,4.71-11c.06-.07-.07-.15-.12-.08a42.44,42.44,0,0,0-5.22,10.8c-.62,1.92-1.12,3.87-1.56,5.84-.21,1-.41,1.93-.59,2.9-.1.5-.21,1-.29,1.53a70.61,70.61,0,0,0-4.51,13.27,193.91,193.91,0,0,0-4.18,24.76,206.16,206.16,0,0,0-1.35,26.29c0,1.1.08,2.2.15,3.3,0,.28.44.32.45,0,.19-4.34.3-8.69.56-13s.64-8.68,1.1-13a230.33,230.33,0,0,1,4.08-25.31c1.59-7.16,3.65-14.36,7.56-20.64a39.18,39.18,0,0,1,7.06-8.4c2.75-2.46,5.75-4.62,8.64-6.9a47.28,47.28,0,0,0,7.93-7.62A61.74,61.74,0,0,0,156,211.13c.46-.89.93-1.77,1.4-2.65C157.43,208.39,157.3,208.31,157.26,208.4Z" style="fill:#263238"></path><path d="M153.88,211.27a63.81,63.81,0,0,1-4.36,7.62.05.05,0,0,0,.09.06,51.73,51.73,0,0,0,4.41-7.64C154.06,211.23,153.92,211.18,153.88,211.27Z" style="fill:#263238"></path><path d="M48.71,246.12S48.4,274,65,282s25.55,1.34,36.86,4h0c-.44-.66-8.51-12.26-21.34-15.46C67.34,267.25,52.71,257.72,48.71,246.12Z" style="fill:#FFC100"></path><path d="M48.71,246.12S48.4,274,65,282s25.55,1.34,36.86,4h0A62.89,62.89,0,0,0,83,280.42C72.47,279.16,52.43,272.32,48.71,246.12Z" style="opacity:0.1"></path><path d="M103,286.51A27.71,27.71,0,0,0,96.38,282c-.36-.17-.73-.31-1.09-.47a8.39,8.39,0,0,0-.56-.63c-.5-.53-1-1-1.56-1.49A23.37,23.37,0,0,0,89.82,277c-2.76-1.62-5.78-2.75-8.6-4.26-.08,0-.15.09-.07.13,1.4.72,2.75,1.52,4.1,2.31s2.67,1.51,4,2.33A29.42,29.42,0,0,1,92.49,280c.3.26.58.54.86.82a43.89,43.89,0,0,0-5.62-1.49c-3-.62-6.13-1.06-9.17-1.7a41.6,41.6,0,0,1-4.41-1.2c-1.39-1.11-2.76-2.21-4.07-3.42a32.47,32.47,0,0,1-4.3-4.77c-.06-.07-.18,0-.12.08a50.66,50.66,0,0,0,6.82,7.53c-.72-.28-1.43-.57-2.13-.89a34.31,34.31,0,0,1-14.18-11.79c-.05-.08-.17,0-.12.08a39,39,0,0,0,11.47,11,34.87,34.87,0,0,0,7.25,3.43,66.09,66.09,0,0,0,9,2.12,65,65,0,0,1,8.82,2.1A26.55,26.55,0,0,1,100,285.8a34.63,34.63,0,0,1,10,12.36c3.15,6.32,4.66,13.38,5.49,20.35,0,.3.5.3.48,0C115.14,306.8,112,294.63,103,286.51Z" style="fill:#263238"></path><path d="M83.69,277.44a9.52,9.52,0,0,0-3.42-3.1A12.53,12.53,0,0,1,76.2,271c-.06-.08-.18,0-.12.08a13.76,13.76,0,0,0,3.59,3.21,12.63,12.63,0,0,1,3.91,3.24C83.63,277.56,83.73,277.5,83.69,277.44Z" style="fill:#263238"></path><polygon points="92.51 307.04 93.27 322.35 95.59 369.09 130.49 369.09 132.81 322.35 133.57 307.04 92.51 307.04" style="fill:#37474f"></polygon><polygon points="92.51 307.04 93.27 322.35 132.81 322.35 133.57 307.04 92.51 307.04" style="fill:#263238"></polygon><rect x="90.07" y="300.66" width="45.95" height="14.6" transform="translate(226.08 615.91) rotate(180)" style="fill:#37474f"></rect></g><g id="freepik--Animals--inject-60"><polygon points="366.95 182.15 320.21 182.15 323.21 166.1 363.95 166.1 366.95 182.15" style="fill:#455a64"></polygon><rect x="336.72" y="172.44" width="13.72" height="3.7" style="fill:#fff"></rect><circle cx="336.72" cy="172.13" r="2.54" style="fill:#fff"></circle><circle cx="336.72" cy="176.12" r="2.54" style="fill:#fff"></circle><circle cx="350.44" cy="172.13" r="2.54" style="fill:#fff"></circle><circle cx="350.44" cy="176.12" r="2.54" style="fill:#fff"></circle><rect x="308.47" y="342.93" width="186.09" height="10.27" style="fill:#a6a6a6"></rect><rect x="302.1" y="353.2" width="200.62" height="15.71" style="fill:#dbdbdb"></rect><rect x="302.1" y="208.14" width="200.62" height="15.71" style="fill:#dbdbdb"></rect><rect x="302.1" y="223.85" width="8.16" height="129.35" style="fill:#dbdbdb"></rect><rect x="327.55" y="223.85" width="3.58" height="129.35" style="fill:#dbdbdb"></rect><rect x="348.43" y="223.85" width="3.58" height="129.35" style="fill:#dbdbdb"></rect><rect x="369.3" y="223.85" width="3.58" height="129.35" style="fill:#dbdbdb"></rect><rect x="390.18" y="223.85" width="3.58" height="129.35" style="fill:#dbdbdb"></rect><rect x="411.05" y="223.85" width="3.58" height="129.35" style="fill:#dbdbdb"></rect><rect x="431.93" y="223.85" width="3.58" height="129.35" style="fill:#dbdbdb"></rect><rect x="452.8" y="223.85" width="3.58" height="129.35" style="fill:#dbdbdb"></rect><rect x="473.68" y="223.85" width="3.58" height="129.35" style="fill:#dbdbdb"></rect><rect x="494.56" y="223.85" width="8.16" height="129.35" style="fill:#dbdbdb"></rect><path d="M474.4,143c4.07-.93,10.33-13.87,11.2-15s7.43-.19,8-2.08-2.21-6.19-4.31-7.16-8.6.34-10.38,1.46a19.61,19.61,0,0,0-4.23,4c-.35.55-13.68,2.68-15.3,4.56S469.49,144.16,474.4,143Z" style="fill:#FFC100"></path><path d="M474.4,143c4.07-.93,10.33-13.87,11.2-15s7.43-.19,8-2.08-2.21-6.19-4.31-7.16-8.6.34-10.38,1.46a19.61,19.61,0,0,0-4.23,4c-.35.55-13.68,2.68-15.3,4.56S469.49,144.16,474.4,143Z" style="opacity:0.2"></path><path d="M409.82,152.42c.23,1.34,6.1,10.83,8.86,13.21s11.9,5.35,13.7,5.13,6.45-.39,6.81-1.66-1.41-3.54-2.17-3.74a37.9,37.9,0,0,0-4.21-1.14c-.53,0-4.6-4.94-4.76-5.67s3.83-10,1.29-13.13S409.82,152.42,409.82,152.42Z" style="fill:#FFC100"></path><path d="M409.82,152.42c.23,1.34,6.1,10.83,8.86,13.21s11.9,5.35,13.7,5.13,6.45-.39,6.81-1.66-1.41-3.54-2.17-3.74a37.9,37.9,0,0,0-4.21-1.14c-.53,0-4.6-4.94-4.76-5.67s3.83-10,1.29-13.13S409.82,152.42,409.82,152.42Z" style="opacity:0.2"></path><path d="M462.84,83.82c6.61,1.39,8.36,14.53,13.88,15.57s12.44-3.18,13.63-1.82,1.17,10.89-2.73,15S472,118.33,470,120.35a8.9,8.9,0,0,0-2.33,7.18c.21,2.56,3.89,9.85,5.44,12.08,2.69,3.89,7.39,8.86,9.46,9.82s3.77.06,4.45.84,1.66,2,.93,2.87-6.82,3.14-8.18,3.08-2.72-2.2-3.27-2.35-10.7-1.07-15.07-6.32c-.41-.49-4.93,4.49-14.29,8-4.8,1.82-18.46,2.51-21.51,2.75s-4.63.38-5,1-2.83,6.68-4.36,9.68-7.12,7.71-7.47,8.57,5.11,1.47,5.06,2.86a4.53,4.53,0,0,1-2.35,3.52c-1,.33-7.6-1.78-9.05-3.18s1.21-7,1.45-8.61-5.5-16.11-6.12-19.54,1.23-20.81,5.2-23.23,28.45-9.52,34.33-16.44c2.36-2.79,2.95-14,5.39-18.41S458.4,82.89,462.84,83.82Z" style="fill:#FFC100"></path><path d="M406.66,127.78a10.9,10.9,0,0,1-12.75-3.58c-3.18-4.39-1.11-10.07-1.66-10.23s-5.18,7.82-2.48,14.17c3.19,7.47,9.72,9.6,10.53,9.25S406.66,127.78,406.66,127.78Z" style="fill:#FFC100"></path><path d="M455.2,85.63c3,1.42,10.57,21.16-4.38,32.63-2.1,1.6-12.88-13.91-12.29-20.28S453,84.6,455.2,85.63Z" style="fill:#263238"></path><path d="M468.38,100c-2.79.61-1.42,5.8,1.16,5.23S470.72,99.5,468.38,100Z" style="fill:#263238"></path><path d="M488.89,103.82c1.14-.26,3-5.11,2.23-6.61s-8.75,2.54-8.85,4S487.65,104.11,488.89,103.82Z" style="fill:#263238"></path><path d="M468.9,122.26c-1.78-.11-12,0-17.64-1.43s-13.16-8.46-13.65-9-2.57,2.15-2.74,2.8,8.4,9.11,15.6,10.31,17.81,1.63,18.2,1.22C469.34,125.48,469.75,122.31,468.9,122.26Z" style="fill:#263238"></path><rect x="308.47" y="182.15" width="186.09" height="10.27" style="fill:#a6a6a6"></rect><rect x="302.1" y="192.42" width="200.62" height="15.71" style="fill:#dbdbdb"></rect><rect x="302.1" y="47.36" width="200.62" height="15.71" style="fill:#dbdbdb"></rect><rect x="302.1" y="63.08" width="8.16" height="129.35" style="fill:#dbdbdb"></rect><rect x="327.55" y="63.08" width="3.58" height="129.35" style="fill:#dbdbdb"></rect><rect x="348.43" y="63.08" width="3.58" height="129.35" style="fill:#dbdbdb"></rect><rect x="369.3" y="63.08" width="3.58" height="129.35" style="fill:#dbdbdb"></rect><rect x="390.18" y="63.08" width="3.58" height="129.35" style="fill:#dbdbdb"></rect><rect x="411.05" y="63.08" width="3.58" height="129.35" style="fill:#dbdbdb"></rect><rect x="431.93" y="63.08" width="3.58" height="129.35" style="fill:#dbdbdb"></rect><rect x="452.8" y="63.08" width="3.58" height="129.35" style="fill:#dbdbdb"></rect><rect x="473.68" y="63.08" width="3.58" height="129.35" style="fill:#dbdbdb"></rect><rect x="494.56" y="63.08" width="8.16" height="129.35" style="fill:#dbdbdb"></rect><path d="M610.88,327.11c0,.9-3.63,3.83-8,4.17s-11.44-1.37-12.94-1.2-1.33,4.29-2.83,5.17-4.93-1.56-5.65-2.75.68-5.56,1.87-6.12,8.95-3.93,10-7.51S610.87,325.68,610.88,327.11Z" style="fill:#FFC100"></path><path d="M610.88,327.11c0,.9-3.63,3.83-8,4.17s-11.44-1.37-12.94-1.2-1.33,4.29-2.83,5.17-4.93-1.56-5.65-2.75.68-5.56,1.87-6.12,8.95-3.93,10-7.51S610.87,325.68,610.88,327.11Z" style="opacity:0.1"></path><path d="M656.69,329.5c.43,2.28-3,7.73-4.5,8.59s-5.49,2-6.25,2.64-1.28,2.3-2.34,2.95-5,.57-5.54,0,0-2.63.79-3a8,8,0,0,0,2.08-.94c.45-.45,2.13-9.76,4.48-12S656.29,327.38,656.69,329.5Z" style="fill:#FFC100"></path><path d="M656.69,329.5c.43,2.28-3,7.73-4.5,8.59s-5.49,2-6.25,2.64-1.28,2.3-2.34,2.95-5,.57-5.54,0,0-2.63.79-3a8,8,0,0,0,2.08-.94c.45-.45,2.13-9.76,4.48-12S656.29,327.38,656.69,329.5Z" style="opacity:0.1"></path><path d="M569.81,299.92c4.1,5,13.2,6.94,15.51,8.16s6.38,8.41,8.7,11.19,13.6,10.9,20.21,12,19.18-2,21.72-1.93,11.93,1.66,12.31,1.83,4.52,4.67,5.64,5.85,4.73,4.28,5.11,4.62a1.05,1.05,0,0,1-.26,1.5c-.5.36-1.49,2.2-.57,2.74s3.84.89,4.9.32,1.82-2.34,2.36-3.26-2.94-7.35-3.6-9.3,3.36-10.28,2.29-13.29S653.05,307.18,648,307.33c-.74,0-2,0-3.5,0-5,0-13.52-.13-21.44-.62-6.82-.4-13.18-1.06-16.4-2.09-8.09-2.58-11.27-13.52-15.74-14.69s-8.88.48-10.82.07c-2.82-.6-10-5.7-11.31-5C566.76,286.19,567.1,296.63,569.81,299.92Z" style="fill:#FFC100"></path><path d="M649,331.59a3.47,3.47,0,0,1-.89-1.22c-.22-.46-.43-.94-.62-1.41-.37-1-.61-1.95-.93-2.92,0-.06-.11,0-.1,0a12.79,12.79,0,0,0,.36,2.38,2,2,0,0,1-.5-.77c0-.07-.16,0-.13,0a2.3,2.3,0,0,0,.72,1,5.31,5.31,0,0,0,.87,1.84,9.87,9.87,0,0,0,1.11,1.13C648.94,331.77,649,331.65,649,331.59Z" style="fill:#263238"></path><path d="M648,307.33c3-.21,7.31-.08,10,1.68s8,10.38,12.06,12.31,10.92.87,11,1.27-6.48,1.89-11.09.48-10.62-11.58-15-12.19A11.83,11.83,0,0,1,648,307.33Z" style="fill:#FFC100"></path><path d="M586.55,295.22c-1.53-1.47-4.17,1.51-2.75,2.87S587.84,296.45,586.55,295.22Z" style="fill:#263238"></path><path d="M567.94,290.16c-1-.37-1.38-4.42-.48-5.72s7,2.66,6.93,4S569.06,290.57,567.94,290.16Z" style="fill:#263238"></path><path d="M592.91,291.17c-.18-.59,3.31,1.11,6.15,3.76a17.65,17.65,0,0,1,3.42,4.9c.53,1.56-1.69,11.56-5,13-2.27,1-5.27-6.34-5.45-8.1S594.46,296.25,592.91,291.17Z" style="fill:#263238"></path><path d="M627.39,316a13.62,13.62,0,0,0,4.92,1.24,28.37,28.37,0,0,1,6.83,1.94c2.87,1.19,6.11,1.73,7.67-1.65s.09-7.23-2.36-10.2c-5,0-13.52-.13-21.44-.62C622.6,310.23,624.52,314.42,627.39,316Z" style="fill:#263238"></path><path d="M613.69,315.12c1.8,1.24,5.19.91,6.13-1.34.53-1.28-.48-2.26-1.31-3.12a6.93,6.93,0,0,0-.82-.72,6.7,6.7,0,0,0-1.7-1.34,2.26,2.26,0,0,0-3,.39A4.19,4.19,0,0,0,613.69,315.12Z" style="fill:#263238"></path><path d="M603.75,303.29c-.06,1-1.66,13.07-11.52,13.56-.6,0,0,2,1.15,2s12.07-1.75,12.1-15.05C605.48,303,603.8,302.45,603.75,303.29Z" style="fill:#455a64"></path><path d="M613.47,323.17c1.73,1.4,5.52,11.27,5,13s-3.61,5.13-3.88,5.53-.12.89-1,1.31-5.5.18-6.06-.39a2.8,2.8,0,0,1,.2-3.09c.7-.61,2.43-.62,2.75-1s1.13-2.61.81-3.28-7.19-4.94-8-8.28S610.77,321,613.47,323.17Z" style="fill:#FFC100"></path><path d="M616.87,328.93q-.24-.75-.54-1.47s0,0,0,0c-.07-.56-.14-1.12-.22-1.68a9.37,9.37,0,0,0-.37-1.65,0,0,0,0,0-.09,0c.07.53.21,1.07.3,1.6s.14.86.18,1.29c0-.13-.1-.26-.16-.39a46.28,46.28,0,0,0-2.24-4.45s-.06,0,0,0c.67,1.53,1.27,3.09,1.88,4.65.3.77.6,1.54.92,2.3s.71,1.58,1,2.39a.08.08,0,0,0,.15,0C617.33,330.64,617.15,329.77,616.87,328.93Z" style="fill:#263238"></path><rect x="509.08" y="342.93" width="186.09" height="10.27" style="fill:#a6a6a6"></rect><rect x="502.71" y="353.2" width="200.62" height="15.71" style="fill:#dbdbdb"></rect><rect x="502.71" y="208.14" width="200.62" height="15.71" style="fill:#dbdbdb"></rect><rect x="502.71" y="223.85" width="8.16" height="129.35" style="fill:#dbdbdb"></rect><rect x="528.17" y="223.85" width="3.58" height="129.35" style="fill:#dbdbdb"></rect><rect x="549.04" y="223.85" width="3.58" height="129.35" style="fill:#dbdbdb"></rect><rect x="569.92" y="223.85" width="3.58" height="129.35" style="fill:#dbdbdb"></rect><rect x="590.8" y="223.85" width="3.58" height="129.35" style="fill:#dbdbdb"></rect><rect x="611.67" y="223.85" width="3.58" height="129.35" style="fill:#dbdbdb"></rect><rect x="632.55" y="223.85" width="3.58" height="129.35" style="fill:#dbdbdb"></rect><rect x="653.42" y="223.85" width="3.58" height="129.35" style="fill:#dbdbdb"></rect><rect x="674.3" y="223.85" width="3.58" height="129.35" style="fill:#dbdbdb"></rect><rect x="695.17" y="223.85" width="8.16" height="129.35" style="fill:#dbdbdb"></rect><polygon points="563.17 342.83 516.43 342.83 519.43 326.78 560.17 326.78 563.17 342.83" style="fill:#263238"></polygon><rect x="532.94" y="333.13" width="13.72" height="3.7" style="fill:#fff"></rect><path d="M535.47,332.81a2.54,2.54,0,1,1-2.53-2.54A2.54,2.54,0,0,1,535.47,332.81Z" style="fill:#fff"></path><path d="M535.47,336.8a2.54,2.54,0,1,1-2.53-2.53A2.54,2.54,0,0,1,535.47,336.8Z" style="fill:#fff"></path><path d="M549.19,332.81a2.54,2.54,0,1,1-2.53-2.54A2.54,2.54,0,0,1,549.19,332.81Z" style="fill:#fff"></path><path d="M549.19,336.8a2.54,2.54,0,1,1-2.53-2.53A2.54,2.54,0,0,1,549.19,336.8Z" style="fill:#fff"></path><polygon points="690.77 182.15 644.03 182.15 647.03 166.1 687.77 166.1 690.77 182.15" style="fill:#FFC100"></polygon><rect x="660.54" y="172.44" width="13.72" height="3.7" style="fill:#fff"></rect><circle cx="660.54" cy="172.13" r="2.54" style="fill:#fff"></circle><circle cx="660.54" cy="176.12" r="2.54" style="fill:#fff"></circle><path d="M676.79,172.13a2.54,2.54,0,1,1-2.53-2.54A2.53,2.53,0,0,1,676.79,172.13Z" style="fill:#fff"></path><path d="M676.79,176.12a2.54,2.54,0,1,1-2.53-2.53A2.54,2.54,0,0,1,676.79,176.12Z" style="fill:#fff"></path><path d="M549.52,100c-.37-1.78-3.28-7.82-6-10.23s-11.8-7.44-12.81-7.3,5,8.23,4.11,13.73C534.46,98.62,549.52,100,549.52,100Z" style="fill:#455a64"></path><path d="M605.4,131.5c5.69-1,17.38-5.18,17.49-17,0,0,6.88,19.78-8,26Z" style="fill:#455a64"></path><path d="M573.87,155.37c2.1,3.61-3.07,17-3.32,18.45s5,5.55,4,7.3-6,2.61-8.17,1.74-5.63-6.51-6-8.57a19.38,19.38,0,0,1,0-5.79c.16-.64-7.4-11.82-7.14-14.28S571.33,151,573.87,155.37Z" style="fill:#37474f"></path><path d="M612.3,158c.2,1.35-2.44,12.18-4.33,15.31s-9.66,8.77-11.44,9.12-6.25,1.62-7,.53.25-3.8.91-4.23a35.06,35.06,0,0,1,3.65-2.38c.51-.14,2.85-6.13,2.76-6.88s-6.73-8.33-5.28-12.08S612.3,158,612.3,158Z" style="fill:#37474f"></path><path d="M523.48,122.16c3.81,2.14,13.81,4.63,13.93,5.23s3.8,25.24,9.76,30.12,20.23,9.64,27.37,10.83S593,166.2,596.21,166a42.13,42.13,0,0,1,8.09.6s3.93,5.71,4.64,7.37,6.66,7.14,6.91,9-2,2.85-2.86,4.05.71,2.5,1.91,3,6.19-1.06,7.26-2.26.83-17,.11-21.07-5.47-29.4-9.4-32.73-14.88-2.5-22.73-4.29S568,118.7,565.5,115s-2.46-12.54-3.74-14.92-10.51-8.9-15.15-9.06a6.79,6.79,0,0,0-1.7.19A31.18,31.18,0,0,0,533.6,97.1c-1.66,1.66-3.5,7.68-6.7,9.88a4.38,4.38,0,0,1-1.87.77c-4.4.66-6.91-1.43-7.92-.59S519.67,120,523.48,122.16Z" style="fill:#455a64"></path><path d="M572.12,162c-.7,4.13-11.78,14-15.35,16.12s-8.69,6.54-10.12,7.5-10.36,0-11.43-1.67,1-4.52,2.15-5.12,3.8-1.21,5-2.09,5.11-7.43,4.88-8.62-3.51-11-3.72-16.18S572.84,157.73,572.12,162Z" style="fill:#455a64"></path><path d="M562.27,101.6c.13-2.14-1.3-9.92-3.6-13.49S544,77.24,542.8,77.08s6.69,9.66,4,15.64C545.58,95.33,562.27,101.6,562.27,101.6Z" style="fill:#455a64"></path><path d="M526.9,107c3,7.29,11.36,12.93,18.87,9.21,5.05-2.49,6.92-9.76,6.53-15a12.5,12.5,0,0,0-7.39-10A31.18,31.18,0,0,0,533.6,97.1C531.94,98.76,530.1,104.78,526.9,107Z" style="fill:#37474f"></path><path d="M537.75,106.4c2.85.26,2.15,5.58-.49,5.34S535.36,106.18,537.75,106.4Z" style="fill:#263238"></path><path d="M519.88,112.26c-1.17.1-4.47-3.92-4.17-5.59s9.11-.3,9.64,1S521.15,112.15,519.88,112.26Z" style="fill:#263238"></path><path d="M537.3,127.12c1.76-.27,9.63-.53,15.09-2.46s12.34-9.63,12.77-10.2,2.75,1.91,3,2.53-7.53,9.85-14.6,11.7-16,2.49-16.36,2.09S536.46,127.25,537.3,127.12Z" style="fill:#FFC100"></path><path d="M569.56,128.85c3.49-2.72,15.46-.13,19,4.79s-5.64,14-13,13.18S564.74,132.61,569.56,128.85Z" style="fill:#37474f"></path><path d="M594.76,136.86c-1.81,1.59-1.33,6.9,2,8.32a5.57,5.57,0,0,0,7.82-4.16C605.15,137.28,598.83,133.29,594.76,136.86Z" style="fill:#37474f"></path><path d="M571.11,124.31c0-1.22-2.29-2.73-3.91-1.87a2.82,2.82,0,0,0-.86,4.41C567.63,128.28,571.22,127.06,571.11,124.31Z" style="fill:#37474f"></path><rect x="509.08" y="182.15" width="186.09" height="10.27" style="fill:#a6a6a6"></rect><rect x="502.71" y="192.42" width="200.62" height="15.71" style="fill:#dbdbdb"></rect><rect x="502.71" y="47.36" width="200.62" height="15.71" style="fill:#dbdbdb"></rect><rect x="502.71" y="63.08" width="8.16" height="129.35" style="fill:#dbdbdb"></rect><rect x="528.17" y="63.08" width="3.58" height="129.35" style="fill:#dbdbdb"></rect><rect x="549.04" y="63.08" width="3.58" height="129.35" style="fill:#dbdbdb"></rect><rect x="569.92" y="63.08" width="3.58" height="129.35" style="fill:#dbdbdb"></rect><rect x="590.8" y="63.08" width="3.58" height="129.35" style="fill:#dbdbdb"></rect><rect x="611.67" y="63.08" width="3.58" height="129.35" style="fill:#dbdbdb"></rect><rect x="632.55" y="63.08" width="3.58" height="129.35" style="fill:#dbdbdb"></rect><rect x="653.42" y="63.08" width="3.58" height="129.35" style="fill:#dbdbdb"></rect><rect x="674.3" y="63.08" width="3.58" height="129.35" style="fill:#dbdbdb"></rect><rect x="695.17" y="63.08" width="8.16" height="129.35" style="fill:#dbdbdb"></rect></g><g id="freepik--character-2--inject-60"><path d="M457.86,435.2c2.05.64,61.77-.65,63.95-2.11.84-.54-4.27-57.11-4.27-57.11l-37.88.73L484,414.55s-22,10.44-24.27,12.29S455.82,434.57,457.86,435.2Z" style="fill:#ad6359"></path><path d="M457.86,435.2c2.05.64,61.77-.65,63.95-2.11.27-.16.35-5.91-.6-13.39-10.83,1.82-49.49,7.75-52.5,6-2.1-1.23-.24-3.16,1.48-4.46-4.94,2.46-9.54,4.83-10.49,5.62C457.48,428.69,455.82,434.57,457.86,435.2Z" style="fill:#263238"></path><path d="M482.9,405.48l37.18-.53s-7.36-89.06-7.06-90.77c.39-2.19,26.78-105.64,26.78-105.64H504.31s-28,96.42-29,105.71C473.69,329.25,482.9,405.48,482.9,405.48Z" style="fill:#37474f"></path><path d="M516.74,396.56c-2.2-.16-4.42-.13-6.62-.16s-4.41,0-6.62,0c-4.41.05-8.81.11-13.22.24-1.21,0-2.41.07-3.62.12s-2.57.28-3.86.33c-.1,0-.1.16,0,.16,1.08,0,2.17.17,3.25.2s2.25,0,3.37,0l6.62,0c4.41,0,8.82-.1,13.23-.28,2.48-.11,5-.14,7.48-.39A.11.11,0,0,0,516.74,396.56Z" style="fill:#263238"></path><path d="M532,216.89c-3.17,11.25-6.08,22.59-8.92,33.92s-5.68,22.69-8.5,34q-2.13,8.51-4.24,17c-1.37,5.52-3,11.08-3.31,16.78s.39,11.65.88,17.43,1,11.61,1.49,17.42c1,11.61,2,23.24,3.26,34.83.15,1.45.31,2.9.46,4.35,0,.12.2.12.19,0-.77-11.62-1.57-23.23-2.5-34.84q-.69-8.71-1.42-17.42c-.47-5.8-1.15-11.61-1.33-17.43a62.25,62.25,0,0,1,2.3-17.15l4.17-16.65q4.26-17,8.5-34c3.15-12.7,6.3-25.43,9.08-38.22A.06.06,0,0,0,532,216.89Z" style="fill:#263238"></path><path d="M539.8,208.54s-11.32,44.38-19.24,75.62l-15.1-75.62Z" style="fill:#263238"></path><path d="M502.46,435.34c2.05.64,61.77-.65,64-2.11.83-.54-2.29-57.14-2.29-57.14l-37.37.72,1.81,37.88s-22,10.44-24.27,12.29S500.42,434.71,502.46,435.34Z" style="fill:#ad6359"></path><path d="M502.46,435.34c2.05.64,61.78-.65,63.95-2.11.27-.17.21-5.76,0-13.4-10.83,1.82-50.09,7.76-53.1,6-2.1-1.23-.24-3.16,1.48-4.46-4.94,2.46-9.54,4.83-10.49,5.62C502.08,428.83,500.42,434.71,502.46,435.34Z" style="fill:#263238"></path><path d="M505.46,208.52s1,17,5.08,30.37c.33,1.11.68,2.2,1.06,3.25a62.83,62.83,0,0,1,10.29,5.12s2.56,64.91,2.51,68.94c-.16,15.08,3.69,88.53,3.69,88.53l37.5-.36s-3.89-83.05-3.91-88.58c0-8.88-7.86-107.25-7.86-107.25Z" style="fill:#37474f"></path><path d="M513.65,231.32c-.15-.94-.29-1.88-.43-2.82-.26-1.72-.61-3.43-.92-5.14-.68-3.89-1.39-7.79-2.26-11.65a.08.08,0,0,0-.16,0c.15,1.56.33,3.11.55,4.66s.37,3.11.59,4.65c.43,3.08.86,6.15,1.38,9.21.21,1.18.94,3.29-.76,3.66-1.34.29-2.32-1-2.72-2.14a26.65,26.65,0,0,1-.9-4.24c-.28-1.55-.52-3.11-.74-4.67-.48-3.4-1-6.78-1.56-10.16,0-.1-.17-.07-.17,0a103.65,103.65,0,0,0,.75,10.41c.22,1.65.47,3.3.75,4.94a17.3,17.3,0,0,0,1.14,4.61,3.72,3.72,0,0,0,2.8,2.25h.08a.11.11,0,0,0-.05.09c0,.55,0,1.11.07,1.66s.16,1.09.27,1.62a10.15,10.15,0,0,0,.42,1.62c.09.25.18.5.29.74s.3.45.44.68a.1.1,0,0,0,.18-.05h0a2.44,2.44,0,0,1,0-.27v0h0a3.87,3.87,0,0,0,0-.48c0-.27-.1-.53-.16-.79-.11-.52-.26-1.05-.4-1.56s-.25-1-.38-1.56-.31-1.06-.44-1.6c0,0,0,0,0-.05a2.46,2.46,0,0,0,2.37-1.48A4.35,4.35,0,0,0,513.65,231.32Z" style="fill:#263238"></path><path d="M524.92,248.55a28.52,28.52,0,0,0-3.52-2.32,34.77,34.77,0,0,0-4-2.08c-2.72-1.18-5.51-2-8.31-2.91-.08,0-.14.11-.06.14,2.71,1.08,5.31,2.51,7.93,3.79,1.29.64,2.59,1.23,3.91,1.82s2.62,1.26,4,1.75A.11.11,0,0,0,524.92,248.55Z" style="fill:#263238"></path><path d="M546.09,224.91a22.55,22.55,0,0,1-5.65-.76c-.85-.21-1.69-.49-2.53-.76a6.7,6.7,0,0,1-2.28-1.14,10.2,10.2,0,0,1-2.44-4.41,43.11,43.11,0,0,1-1.48-5.34c0-.09-.15-.06-.15,0a20.73,20.73,0,0,0,.77,6.07,9.36,9.36,0,0,0,2.43,4.72,9.54,9.54,0,0,0,5.18,1.89,23.52,23.52,0,0,0,6.16-.08A.11.11,0,0,0,546.09,224.91Z" style="fill:#263238"></path><path d="M558.42,358.71q-1-17.77-2-35.55c-1.37-23.58-2.69-47.16-4.17-70.73-.84-13.3-1.7-26.6-2.74-39.89,0-.14-.23-.13-.22,0,.94,23.72,2.39,47.42,3.75,71.11s2.77,47.16,4.26,70.73c.84,13.3,1.88,26.59,2.72,39.89a.08.08,0,0,0,.16,0C559.51,382.43,559.06,370.56,558.42,358.71Z" style="fill:#263238"></path><path d="M563.93,397.11c-2.2-.16-4.42-.13-6.62-.16s-4.41,0-6.62,0c-4.41.05-8.82.11-13.23.24-1.2,0-2.41.07-3.61.12s-2.58.28-3.86.33c-.1,0-.1.16,0,.16,1.08,0,2.17.17,3.25.2s2.25,0,3.37,0l6.62,0c4.41,0,8.82-.1,13.22-.28,2.49-.11,5-.14,7.48-.39A.11.11,0,0,0,563.93,397.11Z" style="fill:#263238"></path><path d="M497.7,176.1l6.17.38a19,19,0,0,0,2.39-11.27c-.07-.9,1.85,4.31.74,11.46,6.52.4,15.38.94,23.13,1.34.26-3,.64-5.81.64-5.81a34.4,34.4,0,0,0,1,5.9l3.1.16A116.3,116.3,0,0,1,536,165.39a41.47,41.47,0,0,0,3.35,13.07c4.92.2,8.16.24,8,0-7.13-8.81-1.49-13.53-3.33-21.12-2.2-9.1-9.91-10.82-9.43-17.58.38-5.49,1.43-15.46-5.44-17.85a13.4,13.4,0,0,0-14.43-3.32c-11.15,3.8-7.43,20.93-8.31,24.35-1.25,4.9-3.66,6.55-5.62,12.11s.45,9.5.6,13.37S496.47,176.05,497.7,176.1Z" style="fill:#263238"></path><path d="M547.54,177.25a19.1,19.1,0,0,1-2.21-4.91,10,10,0,0,1,.21-5.17c.4-1.75.87-3.54,1.11-5.4a14.42,14.42,0,0,0-.33-5.69,12.56,12.56,0,0,0-2.79-5,32.69,32.69,0,0,0-4.09-3.75,20.34,20.34,0,0,1-3.77-3.76,9.88,9.88,0,0,1-1.79-5,9.2,9.2,0,0,0,1.23,5.35,18.37,18.37,0,0,0,3.62,4.22,42.45,42.45,0,0,1,3.79,3.8,12,12,0,0,1,2.41,4.52,14.26,14.26,0,0,1,.32,5.14c-.17,1.76-.56,3.52-.87,5.34a19.53,19.53,0,0,0-.28,2.79,8.1,8.1,0,0,0,.52,2.82A15.43,15.43,0,0,0,547.54,177.25Z" style="fill:#263238"></path><path d="M508.19,124.67a27.46,27.46,0,0,0-1.74,6.51c-.36,2.22-.62,4.46-.85,6.68l-.36,3.33a16.08,16.08,0,0,1-.62,3.16,17.86,17.86,0,0,1-3.21,5.58,24.24,24.24,0,0,0-1.91,2.87,15.58,15.58,0,0,0-1.34,3.24,22.29,22.29,0,0,0-.61,3.42,13.52,13.52,0,0,0,.06,3.48c.15,1.15.44,2.25.67,3.32a17.17,17.17,0,0,1,.39,3.25,6.86,6.86,0,0,1-2.91,5.58,7,7,0,0,0,3.61-5.55,17.15,17.15,0,0,0-.16-3.44c-.16-1.13-.4-2.21-.48-3.29a17.72,17.72,0,0,1,.75-6.38,15.54,15.54,0,0,1,1.27-2.93,23.32,23.32,0,0,1,1.83-2.7,32.74,32.74,0,0,0,1.94-2.83,13.84,13.84,0,0,0,1.42-3.22,17.93,17.93,0,0,0,.57-3.43c.11-1.13.17-2.25.23-3.37.13-2.23.23-4.46.42-6.68A32,32,0,0,1,508.19,124.67Z" style="fill:#263238"></path><path d="M523,162.5c-1.54,6.67-20.19,67.24-24,68.15-11.24,2.68-24.74,4.71-24.65-4.53.13-14.5,25.62-50.16,39-65C521.43,152.21,524.52,155.91,523,162.5Z" style="fill:#ad6359"></path><path d="M516,188.12l-17.38-10.68S508.37,165,515,158.58s11.23-6.1,8,7A194.22,194.22,0,0,1,516,188.12Z" style="fill:#FFC100"></path><path d="M516.57,182.64q-3.51-2.2-7.11-4.23c-1.19-.67-2.37-1.35-3.56-2s-2.53-1.25-3.76-1.91c-.09,0-.18.08-.09.13,1.17.69,2.3,1.45,3.46,2.15s2.44,1.38,3.66,2.06c2.41,1.36,4.86,2.66,7.33,3.89C516.57,182.78,516.64,182.68,516.57,182.64Z" style="fill:#263238"></path><path d="M497.3,228.63,500.73,217l2.31-17.1s-5.44-9.5-2.28-16.32c1.59-3.45,15.57-24.92,21.45-29.19,5.53-4,13.54.28,16.52,3.42,11.5,12.09,14.33,42.17,18.46,74.88Z" style="fill:#FFC100"></path><path d="M499.8,185.58a15.64,15.64,0,0,1,1.91-4.05c.28-.47.9-1.44,1.64-2.57.21-.55.44-1.09.7-1.61a26,26,0,0,0,1.18-2.36.06.06,0,1,1,.11,0c-.39.76-.67,1.58-1,2.38,1.25-1.89,2.56-3.84,3.12-4.64,0-.06.16,0,.11.07-1.2,1.56-5.11,8.43-6.06,10.17a11.65,11.65,0,0,0-1.37,5.59,25.14,25.14,0,0,0,.78,6c.05.16-.12.24-.18.09a16.14,16.14,0,0,1-1.11-4.45A13,13,0,0,1,499.8,185.58Z" style="fill:#263238"></path><path d="M535.32,163.42C539,168.93,557,191,557.62,193s-4.68,6.79-4.64,7.65c.16,3.46,6.66,26.78,9.74,24.57,4.06-2.91,23.25-23.74,21.29-33.38s-39.9-34.19-46-36.44S531.7,158,535.32,163.42Z" style="fill:#ad6359"></path><path d="M550.15,184.64l12-15.46s-12.35-8.86-20.67-12.8-12.61-2.11-5.31,9.2A195.44,195.44,0,0,0,550.15,184.64Z" style="fill:#FFC100"></path><path d="M558.86,168q-2.83,3-5.52,6.17c-.88,1-1.77,2.06-2.63,3.11s-1.71,2.24-2.6,3.33a.08.08,0,0,0,.12.11c.89-1,1.86-2,2.77-3s1.82-2.13,2.73-3.19q2.68-3.16,5.22-6.45C559,168,558.91,167.94,558.86,168Z" style="fill:#263238"></path><path d="M550.17,184.72c-1.65-2.38-3.61-4.52-5.39-6.8s-3.56-4.6-5.25-6.95c0-.06-.14,0-.1.06.78,1.22,1.54,2.45,2.36,3.64.41.6.84,1.18,1.27,1.75-.21-.19-.42-.39-.64-.57-.66-.55-1.36-1.06-2.07-1.54,0,0-.08,0-.05.07a24.16,24.16,0,0,0,1.91,1.74c.49.4,1,.77,1.49,1.14l.76,1a47.26,47.26,0,0,0,5.59,6.56A.08.08,0,0,0,550.17,184.72Z" style="fill:#263238"></path><path d="M547.77,232.84c-2.3-2.27,1.68-3.68,1.68-3.68s-6.23.65-7.7-2.59,3.47-4.68,3.81-4.8c-.33,0-6.06.49-7.2-2.93s4-4.26,4.3-4.3c-.32-.07-4.54-1-4.82-3.83-.47-4.8,11.85-3.07,15-5.38,0,0-.08-6.23-.14-6.42a7,7,0,0,0,2.94,3.6c2.5,1.23,4.8,2.1,5.64,3.57a3.52,3.52,0,0,1-.36,4.2s3.41.23,4.4,2.89c.5,1.37-1.24,3.39-1.24,3.39a4.23,4.23,0,0,1,3.45,2.72c.59,1.93-1.25,3.65-1.25,3.65s2.48,1.5,2.44,3.67C568.66,231,552.7,237.67,547.77,232.84Z" style="fill:#ad6359"></path><path d="M566,223.25a0,0,0,0,1,.05.08,30.05,30.05,0,0,1-16.85,5.93c-.19,0-.28-.31-.07-.36A61.32,61.32,0,0,0,566,223.25Z" style="fill:#263238"></path><path d="M564.18,216.56c.06,0,.11.07.05.11A28.09,28.09,0,0,1,545.45,222c-.23,0-.42-.28-.14-.27C549.86,221.86,559.22,219.16,564.18,216.56Z" style="fill:#263238"></path><path d="M542.21,214.32c6.55.45,12.58-1.24,18.53-3.88.07,0,.11.08.06.13-2.56,2.08-6.53,3.36-9.7,4.1a17.36,17.36,0,0,1-8.91-.12C542.07,214.52,542.07,214.31,542.21,214.32Z" style="fill:#263238"></path><path d="M566.46,223a4.15,4.15,0,0,0,1.72-4,3.14,3.14,0,0,0-1.22-1.81,5.49,5.49,0,0,0-2.46-.69,4.06,4.06,0,0,0,.9-4.52,3,3,0,0,0-1.75-1.4,10.25,10.25,0,0,0-2.63-.37,3.63,3.63,0,0,0,1.33-3,3.91,3.91,0,0,0-1.89-3,18.37,18.37,0,0,0-4-1.73,9.32,9.32,0,0,1-2-1,4.14,4.14,0,0,1-1.47-1.9c-.06-.13-.07,0,0,.11a5.08,5.08,0,0,0,.81,1.43,6.76,6.76,0,0,0,1.26,1.19,28.31,28.31,0,0,0,3.73,1.88,5.67,5.67,0,0,1,2.6,2.5,3.35,3.35,0,0,1-.53,3.48c-.05.05,0,.13.07.14a9.74,9.74,0,0,1,2.28.7,3.3,3.3,0,0,1,1.45,1.31,4.3,4.3,0,0,1-.57,4.25,7.44,7.44,0,0,1,2.33,1.08,3.16,3.16,0,0,1,.92,1.5,3.7,3.7,0,0,1-1.08,3.73.13.13,0,0,0,0,0h0v0l0,0h0s.79.51.83.52,0,0,0-.05A6.42,6.42,0,0,0,566.46,223Z" style="fill:#263238"></path><path d="M532.33,153.53c-.22.95-7.12,6.94-11.44,6.75-1.41-.07,1-7.62,1-7.62l-.13-.56-1.79-8,9.34-6,1.35-.8s.34,2.21.75,5c0,.12,0,.25.05.39s.06.3.08.45c.06.41.13.83.18,1.25s.09.63.13,1l.12,1A54.44,54.44,0,0,1,532.33,153.53Z" style="fill:#ad6359"></path><path d="M531.42,142.3a16.41,16.41,0,0,1-9.65,9.8l-1.79-8,9.34-6,1.35-.8S531,139.54,531.42,142.3Z" style="fill:#263238"></path><path d="M507.75,133.74c-.28,14.3,8.26,16.09,11.34,16.14,2.8.06,12.35-.13,14.1-14.33s-4.81-18.85-11.2-19.31S508,119.43,507.75,133.74Z" style="fill:#ad6359"></path><path d="M532.91,134.56c-3.4.26-3.73-5.11-3.73-5.11s-3.89-.09-4.59-6.3a9.43,9.43,0,0,1-6.78,5c-1.1.24,2.42-2.88,2.42-2.88s-4.18,4.32-12.53,3.35c-.59-.07.07-8.86,6.35-12.27s12.22-2.1,16.5,1.71a7.87,7.87,0,0,1,4.57,5.85C536,128.37,534.23,134.46,532.91,134.56Z" style="fill:#263238"></path><path d="M530.77,135.63s2.81-4.67,4.91-3.69.19,7.59-2.13,8.64a2.42,2.42,0,0,1-3.32-1.08Z" style="fill:#ad6359"></path><path d="M535.09,133.82s0,.05,0,.07a6.1,6.1,0,0,0-2.9,4,1.33,1.33,0,0,1,2-.5c.05,0,0,.1,0,.09a1.49,1.49,0,0,0-1.6.63,7,7,0,0,0-.69,1.37c-.07.16-.34.1-.3-.08l0,0C531.37,137.27,532.82,134.19,535.09,133.82Z" style="fill:#263238"></path><path d="M510.51,131.18a7.81,7.81,0,0,0,.95-.25,1.59,1.59,0,0,0,.93-.44.51.51,0,0,0,0-.62,1.27,1.27,0,0,0-1.26-.24,1.85,1.85,0,0,0-1.13.71A.55.55,0,0,0,510.51,131.18Z" style="fill:#263238"></path><path d="M519.73,130.68c-.34,0-.65-.1-1-.16a1.63,1.63,0,0,1-1-.35.5.5,0,0,1,0-.62,1.26,1.26,0,0,1,1.23-.36,1.87,1.87,0,0,1,1.19.6A.55.55,0,0,1,519.73,130.68Z" style="fill:#263238"></path><path d="M517.85,134.38s.08.05.08.09c0,1,.14,2.09,1,2.4a0,0,0,0,1,0,0C517.88,136.79,517.69,135.31,517.85,134.38Z" style="fill:#263238"></path><path d="M518.7,133.35c1.56-.16,1.76,3,.31,3.13S517.39,133.48,518.7,133.35Z" style="fill:#263238"></path><path d="M519.32,133.47c.29.16.58.46.91.47s.65-.33.88-.66c0,0,.06,0,.06,0,.05.6-.15,1.23-.79,1.36s-1-.38-1.22-1C519.12,133.58,519.21,133.41,519.32,133.47Z" style="fill:#263238"></path><path d="M512.56,134.66s-.08.05-.07.09c.1,1,0,2.09-.81,2.48,0,0,0,.06,0,.05C512.76,137.06,512.81,135.56,512.56,134.66Z" style="fill:#263238"></path><path d="M511.62,133.7c-1.57,0-1.48,3.14,0,3.15S512.94,133.71,511.62,133.7Z" style="fill:#263238"></path><path d="M511,133.93c-.25.17-.48.48-.78.51s-.61-.3-.84-.62c0,0,0,0,0,0,0,.6.22,1.22.8,1.32s.9-.44,1-1C511.16,134,511.07,133.86,511,133.93Z" style="fill:#263238"></path><path d="M518.3,142.24c-.2.25-.4.59-.75.65a2.43,2.43,0,0,1-1.07-.13,0,0,0,0,0,0,.06,1.33,1.33,0,0,0,1.29.39,1,1,0,0,0,.67-.94C518.41,142.21,518.33,142.2,518.3,142.24Z" style="fill:#263238"></path><path d="M514.05,138.92s-.12,1.47-.09,2.15c0,.07.17.09.41.09h0a3.26,3.26,0,0,0,3.11-1.38c0-.07,0-.13-.11-.09a4.9,4.9,0,0,1-2.93,1c-.06-.19.3-2.5.19-2.51a5.83,5.83,0,0,0-1.54.44c.18-3.06.84-6.06,1-9.11a.09.09,0,0,0-.18,0,49.4,49.4,0,0,0-1.46,9.77C512.4,139.64,513.79,139.06,514.05,138.92Z" style="fill:#263238"></path><path d="M514.81,140.77a3.5,3.5,0,0,0,1.41,1.08,1.52,1.52,0,0,0,1,.05c.69-.19.7-.82.57-1.37a3.8,3.8,0,0,0-.32-.83A4.54,4.54,0,0,1,514.81,140.77Z" style="fill:#263238"></path><path d="M516.22,141.85a1.52,1.52,0,0,0,1,.05c.69-.19.7-.82.57-1.37A1.64,1.64,0,0,0,516.22,141.85Z" style="fill:#ff9cbd"></path><path d="M509.31,119.69c1.67-.23,10.75.9,14.68,3s10.64,8.73,11,9.07,3.64-14.49-8.28-18.38C513.71,109.18,509.31,119.69,509.31,119.69Z" style="fill:#FFC100"></path><path d="M534.33,131.12s-7.05-11.38-11.29-14.23-14.13-5.16-20.58-3c-5,1.67,6.17,9,6.17,9a3.38,3.38,0,0,1,2.1-2.16c3.13-.91,8.77.55,11.93,2C526.64,124.44,534.33,131.12,534.33,131.12Z" style="fill:#FFC100"></path><path d="M534.33,131.12s-7.05-11.38-11.29-14.23-14.13-5.16-20.58-3c-5,1.67,6.17,9,6.17,9a3.38,3.38,0,0,1,2.1-2.16c3.13-.91,8.77.55,11.93,2C526.64,124.44,534.33,131.12,534.33,131.12Z" style="opacity:0.2"></path><path d="M521.89,152.65l1.93,6.54,8.59-7.23,2,2.77s-8.86,11.94-8.85,11.36l-2.08-5.68-4.11,3.43,1.21-9.46Z" style="fill:#FFC100"></path><path d="M519.67,159.13c.26-1.56.47-3.13.79-4.67,0-.05.1-.07.11,0,.17,1.54-.83,7.48-1,8.91l0,0c.17-.14,3.79-3,3.82-2.94.48.92,2,5.05,2.11,5.43,1.4-1.9,6.73-8.77,8.35-10.54,0-.05.12,0,.09.07-1.27,2-8.35,11.28-8.44,11.25a60.81,60.81,0,0,1-2.17-6,43,43,0,0,1-4.31,3.65C519.16,162.69,519.42,160.68,519.67,159.13Z" style="fill:#263238"></path><rect x="480.61" y="182.48" width="36.82" height="47.93" transform="translate(-39.38 164.41) rotate(-18.01)" style="fill:#455a64"></rect><rect x="482.79" y="181.23" width="17.45" height="5.29" transform="translate(1015.83 206.16) rotate(161.92)" style="fill:#263238"></rect><polygon points="486.17 182.84 488.21 182.17 487.46 179.85 492.42 178.24 493.18 180.55 495.22 179.89 493.84 175.66 484.76 178.63 486.17 182.84" style="fill:#263238"></polygon><path d="M516.15,195.33a3.8,3.8,0,0,1,.77,4.27,5.65,5.65,0,0,1,3.29,2c1.39,1.86-.93,4.86-.93,4.86a6.94,6.94,0,0,1,3.15,2.62c1.15,1.92-.76,5.28-.76,5.28a6.11,6.11,0,0,1,1.31,4c-.32,3.91-5.65,6.65-9,8.42s-14.58,3.66-16.68,4.24l-11.58-21.51s12.83-12.26,17.08-13.78C506.38,194.46,514,193.31,516.15,195.33Z" style="fill:#ad6359"></path><path d="M487.22,208.1c-3.84,3-15.32,14.64-12.51,20.44s12.14,5.09,25.08,2Z" style="fill:#ad6359"></path><path d="M516.58,199.34c-4.14.45-7.91,2.1-11.78,3.53a.07.07,0,0,0,.05.14c3.83-1.47,7.9-2.17,11.78-3.48A.1.1,0,0,0,516.58,199.34Z" style="fill:#263238"></path><path d="M519.06,206.18a10.82,10.82,0,0,0-2.68.94c-.92.39-1.84.81-2.75,1.23-1.82.86-3.63,1.75-5.4,2.7-.08,0,0,.17,0,.13,1.82-.84,3.65-1.66,5.5-2.43q1.4-.58,2.79-1.14a12.6,12.6,0,0,0,2.59-1.17A.15.15,0,0,0,519.06,206.18Z" style="fill:#263238"></path><path d="M521.59,214.36a7.46,7.46,0,0,0-2.36,1l-2.48,1.21c-1.65.79-3.31,1.59-5,2.32-.08,0,0,.17.05.14,1.71-.74,3.44-1.46,5.14-2.21l2.51-1.13a7.19,7.19,0,0,0,2.18-1.22S521.63,214.36,521.59,214.36Z" style="fill:#263238"></path><path d="M486.72,208.31a35.94,35.94,0,0,0-3.81,3.32l-.9,1-.39.26c-.55.37-1.08.75-1.59,1.17a28.91,28.91,0,0,0-2.78,2.64c-.06.07,0,.16.1.1a26.82,26.82,0,0,1,3-2.47l.42-.29c-.5.57-1,1.15-1.44,1.75a47.45,47.45,0,0,0-3.33,5c-.05.08.08.14.12.07,1.85-3.06,10-11.28,10.88-12.26S487.4,207.75,486.72,208.31Z" style="fill:#263238"></path></g><g id="freepik--character-1--inject-60"><path d="M155,384.7l-16.49,34.17-5.92-1.71-.58-.28S113.41,433,110.8,434.32s-8.71.46-8.46-1.68,24.91-55.33,27.13-56.75c.84-.56,8.8,2.58,18.31,6.66l.29.13C148.56,382.89,151.23,383.66,155,384.7Z" style="fill:#ebebeb"></path><path d="M102.13,432.9c.24-2.17,25-55.95,27.21-57.4.84-.56,8.89,2.58,18.5,6.66L132,416.88s-18.68,16.36-21.3,17.69S101.9,435.07,102.13,432.9Z" style="fill:#FFC100"></path><path d="M104.64,433.12c4.36-8.91,21.14-45.28,24.78-54.42,0-.08,0-.1-.06,0-4.52,8.74-21,45.24-24.87,54.38C104.41,433.24,104.54,433.31,104.64,433.12Z" style="fill:#263238"></path><path d="M114.21,432a8,8,0,0,0,.28-6.4,7.69,7.69,0,0,0-3.89-4.23s-.1.07,0,.11A9.21,9.21,0,0,1,114.1,432,.06.06,0,0,0,114.21,432Z" style="fill:#263238"></path><path d="M129.49,420c1.71-3.59,2.36-8.36.44-12-.08-.14-.27,0-.27.1a54.64,54.64,0,0,1-.65,11.71A.26.26,0,0,0,129.49,420Z" style="fill:#263238"></path><path d="M127.12,422.25c1.71-3.58,2.36-8.35.44-11.95-.07-.14-.27,0-.27.1a54.71,54.71,0,0,1-.64,11.71A.25.25,0,0,0,127.12,422.25Z" style="fill:#263238"></path><path d="M124.75,424.54c1.71-3.59,2.36-8.36.44-12-.07-.13-.27,0-.26.11a54.72,54.72,0,0,1-.65,11.71A.25.25,0,0,0,124.75,424.54Z" style="fill:#263238"></path><path d="M122.39,426.83c1.71-3.59,2.36-8.36.44-12-.08-.14-.28,0-.27.1a54.68,54.68,0,0,1-.65,11.71A.26.26,0,0,0,122.39,426.83Z" style="fill:#263238"></path><path d="M136.92,384.93c1.85-4.05-4.44-6.93-6.3-2.87S135.07,389,136.92,384.93Z" style="fill:#263238"></path><path d="M137.32,428.29c2.36-1.13,1.94-4.11.88-6a20.86,20.86,0,0,0-7.72-7.52.1.1,0,0,0-.15.07c-.3-.05-.66.16-.59.51.59,3.39.81,7.08,2.43,10.18C133.11,427.39,135.1,429.36,137.32,428.29Zm-5.63-8c-.33-1.66-.58-3.32-1-5a62.28,62.28,0,0,1,4.41,4.49A21.56,21.56,0,0,1,137,422.3c.83,1.33,2.22,6.26-1.87,4.82C132.82,426.32,132.09,422.32,131.69,420.34Z" style="fill:#263238"></path><path d="M133.27,405.23c-1.93,2.92-2.53,6.57-3.47,9.88-.1.34.24.58.54.57,0,.07.06.12.14.08a20.81,20.81,0,0,0,8.46-6.69c1.23-1.73,2-4.65-.27-6S134.39,403.53,133.27,405.23Zm3-1.23c4.22-1,2.33,3.74,1.37,5a23,23,0,0,1-2.07,2.23,61.9,61.9,0,0,1-4.85,4c.56-1.6,1-3.23,1.48-4.84C132.85,408.46,134,404.56,136.32,404Z" style="fill:#263238"></path><path d="M233.68,279.7s-.66,20.85-3.79,31.11c0,0-3.41,1.8-4.43,2.44,0,0,25.9,62,24.42,85.86-.48,7.82-9.34,20.67-18.29,26.24-15.83,9.85-93.11,1.21-93.11,1.21l11.21-46.46s48.87,2.72,50.1.07c1.57-3.35-8.16-29.43-15.93-50.62-.79-2.14-8.6-10-7.69-24.33a73.92,73.92,0,0,1,6.72-25.52Z" style="fill:#263238"></path><path d="M158.61,385.26c10.66-.19,19.34.71,30,.72h12.08a11.88,11.88,0,0,0,2.79-.25,3.42,3.42,0,0,0,2.14-1.27c.71-1.06.33-2.4.08-3.54-.53-2.51-1.14-5-1.8-7.48-2.69-10.07-6.19-19.91-9.49-29.78l-5.1-15.27c-.41-1.24-.83-2.47-1.35-3.67a31.32,31.32,0,0,0-1.67-3.2,29.64,29.64,0,0,1-2.9-6.29c-2.88-9.47-.11-19.28,3.26-28.22.46-1.2.92-2.4,1.41-3.58,0-.08.17-.05.14,0-3.07,9.44-6.74,19.26-4.67,29.33a24.18,24.18,0,0,0,2.46,6.78c.59,1.08,1.23,2.13,1.81,3.22a26.73,26.73,0,0,1,1.49,3.43c1.8,5,3.4,10.09,5.09,15.13,3.37,10,6.91,20,9.72,30.24.7,2.55,1.35,5.1,1.92,7.67.42,1.9,1.37,4.48-.28,6.05-1.21,1.15-3.11,1.29-4.7,1.3-2.65,0-5.31,0-8,0-10.81,0-33.13-.94-34.47-1A.19.19,0,0,1,158.61,385.26Z" style="fill:#37474f"></path><path d="M146.69,424.4c1-5.42,2-10.88,3.25-16.28s2.5-10.79,3.9-16.16c.39-1.51.8-3,1.21-4.54.19-.72.38-1.44.6-2.15a18.1,18.1,0,0,1,.66-2.17c0-.07.14,0,.13,0a29.61,29.61,0,0,1-.74,4.17c-.26,1.31-.52,2.62-.79,3.93q-.82,4-1.71,8.07c-1.17,5.38-2.51,10.71-3.88,16.05-.78,3-1.56,6.06-2.36,9.09C146.92,424.62,146.65,424.58,146.69,424.4Z" style="fill:#37474f"></path><path d="M241,355.67,186.15,335.8l-2.29-6.25c-.79-2.14-8.6-10-7.69-24.33a73.92,73.92,0,0,1,6.72-25.52h50.79s-.66,20.85-3.79,31.11c0,0-3.41,1.8-4.43,2.44C225.46,313.25,234,333.72,241,355.67Z" style="fill:#37474f"></path><path d="M324.41,435.14c-2.07.62-60.66-1.32-62.84-2.81-.84-.56-1.06-9.11-1-19.45v-.33c0-.58.37-3.68.89-7.87l38.47,1.5-1.54,7.2,0,.64s22.1,10.78,24.33,12.67S326.48,434.52,324.41,435.14Z" style="fill:#ebebeb"></path><path d="M324.85,435.39c-2.09.62-61.25-1.35-63.46-2.85-.84-.56-1.06-9.2-1-19.64l38.15,1.16s22.31,10.89,24.56,12.79S326.94,434.77,324.85,435.39Z" style="fill:#FFC100"></path><path d="M324.08,433c-9.91-.57-49.93-1.95-59.77-1.76-.08,0-.08,0,0,.06,9.81.78,49.84,1.84,59.77,1.87C324.29,433.16,324.29,433,324.08,433Z" style="fill:#263238"></path><path d="M319.34,424.6a8,8,0,0,0-6,2.22,7.7,7.7,0,0,0-2.39,5.23c0,.05.1.06.12,0a9.21,9.21,0,0,1,8.28-7.33A.06.06,0,1,0,319.34,424.6Z" style="fill:#263238"></path><path d="M302.33,415.18c-4-.19-8.62,1.06-11.19,4.22-.1.12.07.26.19.21a54.67,54.67,0,0,1,11.05-3.94A.25.25,0,0,0,302.33,415.18Z" style="fill:#263238"></path><path d="M305.35,416.47c-4-.18-8.61,1.06-11.19,4.23-.1.12.08.26.2.2A55.29,55.29,0,0,1,305.41,417,.25.25,0,0,0,305.35,416.47Z" style="fill:#263238"></path><path d="M308.38,417.77c-4-.19-8.62,1.06-11.19,4.22-.1.13.07.27.19.21a55.29,55.29,0,0,1,11.05-3.94A.25.25,0,0,0,308.38,417.77Z" style="fill:#263238"></path><path d="M311.4,419.07c-4-.19-8.61,1.06-11.19,4.22-.1.12.08.26.2.21a54.67,54.67,0,0,1,11-3.94A.25.25,0,0,0,311.4,419.07Z" style="fill:#263238"></path><path d="M267.15,421.89c-4.45-.13-4.67,6.79-.21,6.92S271.61,422,267.15,421.89Z" style="fill:#263238"></path><path d="M307,404.73c-2-1.74-4.54-.19-5.83,1.5a20.84,20.84,0,0,0-3.95,10,.11.11,0,0,0,.12.12.5.5,0,0,0,.71.34c2.89-1.86,6.21-3.49,8.44-6.19C307.77,409,308.82,406.37,307,404.73ZM301.82,413c-1.4.95-2.84,1.83-4.2,2.83a61.42,61.42,0,0,1,2.43-5.81,24.74,24.74,0,0,1,1.54-2.63c.91-1.28,4.91-4.47,5.17-.14C306.89,409.64,303.49,411.87,301.82,413Z" style="fill:#263238"></path><path d="M287.28,417.4c3.44.65,7-.22,10.45-.63a.49.49,0,0,0,.32-.72c.05,0,.08-.1,0-.16a20.87,20.87,0,0,0-9.44-5.21c-2.08-.47-5.05,0-5.45,2.58S285.27,417,287.28,417.4ZM285,415.06c-2.57-3.49,2.55-3.6,4.06-3.19a22.33,22.33,0,0,1,2.87,1c1.94.83,3.73,1.91,5.58,2.92-1.69.1-3.36.34-5,.51C290.42,416.53,286.38,417,285,415.06Z" style="fill:#263238"></path><path d="M305,410.52H255.82S264,348.06,261.27,344c-1.19-1.78-60.75,4.19-78.17-14.69-15.94-17.25.28-49.59.28-49.59h48.89s1,13.86,3.62,19.4c1.13,2.38,61.46,1.5,70,17.11C317.32,337.06,305,410.52,305,410.52Z" style="fill:#263238"></path><path d="M260.67,401.8c5.52-.18,11.06-.42,16.59-.44s11.09.06,16.63.24l4.69.17c.75,0,1.49.06,2.24.11a18.76,18.76,0,0,1,2.25.16.07.07,0,0,1,0,.14,29.68,29.68,0,0,1-4.22.2c-1.34,0-2.67.08-4,.1q-4.12.09-8.24.12c-5.52,0-11-.08-16.52-.24-3.13-.09-6.26-.18-9.38-.29C260.51,402.07,260.49,401.8,260.67,401.8Z" style="fill:#37474f"></path><path d="M230.27,294.67q-.3-2.21-.57-4.41c-.4-3.35-.74-6.72-.85-10.1,0-.26.38-.24.4,0,.32,2.6.56,5.21.85,7.82s.52,5.21,1,7.77c.14.77.47,2.06,1.45,2.07,1.33,0,1.58-1.76,1.69-2.74a42.26,42.26,0,0,0,.13-7.29c-.14-2.77-.49-5.54-.79-8.29,0-.1.15-.12.17,0,1.14,5.36,2.23,11,1.28,16.46a3.05,3.05,0,0,1-1.77,2.59h-.06a.15.15,0,0,1,0,.09c0,.15,0,.31,0,.47s0,.26,0,.39,0,.54,0,.81a.2.2,0,0,1-.4,0,.18.18,0,0,1-.14-.14,4.48,4.48,0,0,1,0-1.59,1.94,1.94,0,0,1-1.63-.87A7,7,0,0,1,230.27,294.67Z" style="fill:#37474f"></path><path d="M235.14,298.64a77.92,77.92,0,0,0-10.52,8.65c-.13.12,0,.33.17.22,3.58-2.77,7.26-5.48,10.69-8.45A.27.27,0,0,0,235.14,298.64Z" style="fill:#37474f"></path><path d="M195,301.3a21,21,0,0,0,3.16-.24c.92-.18,1.84-.43,2.74-.7,1.69-.5,3.76-1.1,5-2.43a18.08,18.08,0,0,0,2.84-4.89,19.7,19.7,0,0,0,1.66-5.82c0-.09.15-.09.14,0a30,30,0,0,1-1,6.17,20.35,20.35,0,0,1-1.15,2.92,10.73,10.73,0,0,1-1.64,2.61,10.41,10.41,0,0,1-5.52,2.58,17.33,17.33,0,0,1-6.22,0C194.77,301.51,194.82,301.3,195,301.3Z" style="fill:#37474f"></path><path d="M266.23,341A2.69,2.69,0,0,0,264,338.9a21.93,21.93,0,0,0-4-.08c-3.06,0-6.11.06-9.17.07-12,0-24.18-.32-36-2.69A83.92,83.92,0,0,1,198,331.12c-4.59-2-9.18-4.72-12.05-8.94-3.3-4.87-3.55-11.24-3.44-16.93a64.79,64.79,0,0,1,3-18.11c.47-1.49,1-3,1.58-4.41,0-.09-.09-.16-.13-.07a62.83,62.83,0,0,0-4.78,17.48,61.82,61.82,0,0,0-.41,8.92,34.8,34.8,0,0,0,1.13,8.68c3.12,10.65,15.06,15.05,24.71,17.75,11.62,3.26,23.74,4.16,35.75,4.34,6,.09,12.08,0,18.12-.08,1.16,0,3.06-.34,3.74.87a6.58,6.58,0,0,1,.54,2.2c.14.85.23,1.7.29,2.56a72.14,72.14,0,0,1-.13,9.64q-.57,9.78-1.35,19.54c-.52,6.55-1.25,13.08-1.72,19.63-.12,1.61-.28,3.21-.43,4.81,0,.18.3.22.32,0,1.68-12.94,2.88-25.93,3.73-39,.21-3.22.45-6.44.54-9.66A35.15,35.15,0,0,0,266.23,341Z" style="fill:#37474f"></path><path d="M236.84,343.42a99.49,99.49,0,0,1-12.18-.88c-3.8-.48-7.6-1-11.39-1.64-6.57-1.13-13.29-2.36-19.51-4.87a34,34,0,0,1-9.4-5.45c-.07-.06-.18.05-.1.12,4.7,4.56,10.65,7.24,16.92,8.94a137.73,137.73,0,0,0,21.9,3.85,119.48,119.48,0,0,0,13.78.4C237.16,343.88,237.13,343.43,236.84,343.42Z" style="fill:#37474f"></path><path d="M235.14,235.71c2.71,14.48,9,36.33,17.2,45.3,6.56,7.16,31.88,15.53,44.79,16.44,4.56.31,3.1-18.09.09-22.07-1.8-2.38-29.26-7.63-32.33-10.68-4.65-4.63-12.5-20.39-20.48-32.29C240.21,226.13,232.73,222.78,235.14,235.71Z" style="fill:#d3766a"></path><path d="M288.85,272.8s6.61-2.18,9.72-2.5,15.16,2.78,14.64,5.42c-.67,3.41-8,3-11.53,2.32,0,0-1.54,7.89-6.85,8.72S288.85,272.8,288.85,272.8Z" style="fill:#d3766a"></path><path d="M292.81,296.73c2.6.59,14.78,2.23,18.27,1.93s13.47-1.89,13.51-4.58-2.92-2.47-2.92-2.47,4.11-1.34,3.9-4.05-4.79-2.21-4.79-2.21,4.11-1.68,3.72-4.38-4.93-1.41-4.93-1.41,3.83-1.36,2.57-3.44c-1.52-2.51-8.31.81-12.19.85-.88,0-17.86-1.08-17.86-1.08Z" style="fill:#d3766a"></path><path d="M320,279.46c-5,2.43-7.61,2.62-13,2-.11,0-.15.15,0,.17,5.27,1.08,8.57,1.31,13.21-1.94C320.31,279.54,320.2,279.35,320,279.46Z" style="fill:#263238"></path><path d="M321.17,285.15c-5.41,2.07-8.24,2.3-14,2.08-.08,0-.09.14,0,.15,5.61.68,8.91.83,14.05-1.94C321.46,285.32,321.42,285.06,321.17,285.15Z" style="fill:#263238"></path><path d="M321.38,291.59c-5.39,1.62-8.47,2-14,1.09a.1.1,0,0,0,0,.2,18.64,18.64,0,0,0,14.09-1.12C321.73,291.61,321.72,291.49,321.38,291.59Z" style="fill:#263238"></path><path d="M312.72,276.6c-2.85,2.66-7.46,1.48-11,1.09-.27,0-.38.17-.37.38-.87,3.26-3,7.61-6.39,8.82a.08.08,0,0,0,0,.16c3.77-.82,6.26-4.91,7-8.55,3.58.46,8.25,1.45,10.72-1.88C312.76,276.6,312.74,276.58,312.72,276.6Z" style="fill:#263238"></path><path d="M283.7,269.77l-4.14,29.84S256,286.88,250.71,282s-14.69-34.38-17-47c-2.06-11.17,5.75-12.24,13-.5s17.76,28.24,19.4,29S283.7,269.77,283.7,269.77Z" style="fill:#455a64"></path><path d="M279.18,269.3c-.95,4.31-1.53,8.71-2.12,13.09s-1.06,8.68-1.32,13.05c0,.1.17.12.19,0,.78-4.35,1.41-8.72,2-13.1s1.21-8.67,1.55-13A.15.15,0,0,0,279.18,269.3Z" style="fill:#263238"></path><path d="M262.24,289.77c-4.95-3-9.54-5.93-11.53-7.76-5.28-4.86-14.69-34.38-17-47-1-5.56.39-8.61,3-8.83Z" style="fill:#263238"></path><path d="M240.73,301.45c-1.11.82-62.38-9.42-62.62-9.85-.63-1.17,26.81-57.14,41.76-66.13,7.68-4.61,16.84-.65,19,3.46a55.33,55.33,0,0,1,4.32,15.48C244.92,258.64,241.7,300.72,240.73,301.45Z" style="fill:#fff"></path><path d="M223.12,224.21s1.83,12.63,3.06,27.86c1.12,14-4.59,51.37-4.59,51.37l-47-7.71s12.63-25.11,13.38-26.88S209.79,226.56,223.12,224.21Z" style="fill:#455a64"></path><path d="M237.78,226.94s4.08,16.73,3.49,27.13c-.31,5.27-3.72,49.07-3.72,49.07l3.67-1.83s3.23-35.58,3.09-52.37C244.24,239.87,240.5,230.06,237.78,226.94Z" style="fill:#455a64"></path><path d="M232.78,237.18c-3.38-.15-7.43-6.54-8.46-11.07a68.46,68.46,0,0,1,2.47-6.4c.8-2.05,1.64-4.35,2.25-6.5l12.58,7.13a35.52,35.52,0,0,0-3.67,7.9,4.93,4.93,0,0,0-.15.91,1.31,1.31,0,0,1,0,.15C237.57,231.06,236.05,237.33,232.78,237.18Z" style="fill:#d3766a"></path><path d="M241.62,220.34a35.21,35.21,0,0,0-3.66,7.9,3.71,3.71,0,0,0-.16.91.89.89,0,0,1,0,.14,6.87,6.87,0,0,1-1.41-.32c-7.81-2.41-7.25-12.78-7-15.56Z" style="fill:#263238"></path><path d="M233.36,195.7c-3.13,4.15-5.6,18.57-3.37,22.8,3.23,6.13,11,9.43,16.8,5,5.65-4.31,8.53-23.15,5.82-27.25C248.6,190.21,238,189.56,233.36,195.7Z" style="fill:#d3766a"></path><path d="M228.78,217.31h0" style="fill:none;stroke:#f5a79e;stroke-linecap:round;stroke-linejoin:round;stroke-width:0px"></path><path d="M253.12,202.19c-5.42,2.32-11-3.93-11-3.93a5.28,5.28,0,0,1-5.92,2.23s-2.55,7.89-4.67,7.45c-3.24-.67-2-11.88-.59-13.83s4.32-2,4.32-2a5.36,5.36,0,0,1,2.84-2.77c2.56-1.25,9.74,2.56,9.74,2.56a7.22,7.22,0,0,1,2.49-2.25,2,2,0,0,1,2.83.84,5,5,0,0,0-1.18,1.83c-.85,2.29,1.08,2.67,1.49.53a3.43,3.43,0,0,0-.31-2.36c1.23-1.21,2.88-1.36,3.67-.42C258.32,191.81,257.63,200.27,253.12,202.19Z" style="fill:#263238"></path><path d="M243.8,209.06s-.09,0-.09.08c-.11,1-.41,2.06-1.33,2.25,0,0,0,.06,0,.06C243.47,211.46,243.84,210,243.8,209.06Z" style="fill:#263238"></path><path d="M243.08,207.92c-1.53-.35-2.12,2.75-.7,3.08S244.37,208.22,243.08,207.92Z" style="fill:#263238"></path><path d="M249.44,210.12s.07.06.06.1c-.21,1-.29,2.09.52,2.57,0,0,0,.06,0,.05C249,212.49,249.09,211,249.44,210.12Z" style="fill:#263238"></path><path d="M250.49,209.28c1.57.18,1.1,3.3-.35,3.14S249.18,209.14,250.49,209.28Z" style="fill:#263238"></path><path d="M242.28,206.1c.45,0,.86,0,1.3-.08a2.05,2.05,0,0,0,1.3-.33.67.67,0,0,0,.12-.81,1.66,1.66,0,0,0-1.56-.62,2.4,2.4,0,0,0-1.63.63A.71.71,0,0,0,242.28,206.1Z" style="fill:#263238"></path><path d="M252.27,208.44c-.41-.17-.77-.39-1.16-.59a2.08,2.08,0,0,1-1.06-.83.67.67,0,0,1,.21-.78,1.64,1.64,0,0,1,1.68,0,2.42,2.42,0,0,1,1.25,1.23A.71.71,0,0,1,252.27,208.44Z" style="fill:#263238"></path><path d="M241.17,217.36c.13.3.23.68.55.84a2.54,2.54,0,0,0,1.06.17,0,0,0,0,1,0,.06,1.33,1.33,0,0,1-1.35,0,1,1,0,0,1-.4-1.09C241.07,217.31,241.15,217.32,241.17,217.36Z" style="fill:#263238"></path><path d="M242.9,214.83a3.37,3.37,0,0,0,1.91,1.87A4.25,4.25,0,0,0,246,217l.45,0a.24.24,0,0,0,.23-.18h0s.33-2.06.33-2.06c.24.18,1.5,1.07,1.55.68a49.87,49.87,0,0,0,.61-10.15.09.09,0,0,0-.18,0c-.52,3.1-.49,6.26-1,9.38a5.69,5.69,0,0,0-1.46-.76s-.33,2.54-.34,2.56a4.59,4.59,0,0,1-3.19-1.69C243,214.69,242.86,214.74,242.9,214.83Z" style="fill:#263238"></path><path d="M245.31,216.37a3.46,3.46,0,0,1-1.61.75,1.67,1.67,0,0,1-.95-.16c-.64-.34-.51-1-.27-1.46a4,4,0,0,1,.5-.75A4.5,4.5,0,0,0,245.31,216.37Z" style="fill:#263238"></path><path d="M243.7,217.12a1.67,1.67,0,0,1-.95-.16c-.64-.34-.51-1-.27-1.46A1.64,1.64,0,0,1,243.7,217.12Z" style="fill:#ff9cbd"></path><path d="M232.47,208.78s-1.57-5.46-3.94-5-2.25,7.58-.2,9.26a2.51,2.51,0,0,0,3.63-.19Z" style="fill:#d3766a"></path><path d="M228.61,205.79s-.06,0,0,.06a6.34,6.34,0,0,1,1.82,4.84,1.38,1.38,0,0,0-1.84-1c-.06,0,0,.09,0,.1a1.56,1.56,0,0,1,1.44,1.06,7.7,7.7,0,0,1,.33,1.57c0,.18.31.19.32,0v0C231.42,210.27,230.79,206.78,228.61,205.79Z" style="fill:#263238"></path><path d="M336.72,384.59c2.08-10.22,15.66-12.4,21.48-11.48s13.59,5.41,13.36,10.6-6.11,20.11-8.08,22.77-4.11,5.06-5,7.45-2.12,11-3.93,11.91-15,1.11-17.66,0-2.64-4.94.74-6.43,5.2-.63,7-1.79c1.06-.7.94-6.07.76-7.42S333.45,400.65,336.72,384.59Z" style="fill:#FFC100"></path><path d="M336.72,384.59c2.08-10.22,15.66-12.4,21.48-11.48s13.59,5.41,13.36,10.6-6.11,20.11-8.08,22.77-4.11,5.06-5,7.45-2.12,11-3.93,11.91-15,1.11-17.66,0-2.64-4.94.74-6.43,5.2-.63,7-1.79c1.06-.7.94-6.07.76-7.42S333.45,400.65,336.72,384.59Z" style="opacity:0.1"></path><path d="M334.84,276.83c-.17-1.94,3.73-4.18.77-10.45s-5.81-8.41-5.37-9,11.71,4.35,14.87,10.81.78,11.25.4,11.66S334.91,277.62,334.84,276.83Z" style="fill:#FFC100"></path><path d="M334.84,276.83c-.17-1.94,3.73-4.18.77-10.45s-5.81-8.41-5.37-9,11.71,4.35,14.87,10.81.78,11.25.4,11.66S334.91,277.62,334.84,276.83Z" style="opacity:0.1"></path><path d="M331.2,307.6s-11-20.85-14.45-23.79-16.52-7.06-18.56-5.24-.09,7.53,1.22,9.06,10.51,5,11.29,5.57c.44.34-2.08,12.31,1.48,23.43,2.64,8.27,6.6,14.11,7,14.38C320.18,331.65,330.3,309,331.2,307.6Z" style="fill:#FFC100"></path><path d="M331.2,307.6s-11-20.85-14.45-23.79-16.52-7.06-18.56-5.24-.09,7.53,1.22,9.06,10.51,5,11.29,5.57c.44.34-2.08,12.31,1.48,23.43,2.64,8.27,6.6,14.11,7,14.38C320.18,331.65,330.3,309,331.2,307.6Z" style="opacity:0.1"></path><path d="M373.35,433.46c-1.19.4-16.27,1.57-18.06-1s-.1-4.84,1.84-5.71,6-.29,7-1.79,1.41-5.65.76-7.41-11.76-9.11-8.7-25.61c0,0-7.07-2.65-12.79-4.69s-32.42-40.83-33-47.53c-1.39-15.74,11-33.61,11-33.61s-8.74-5.15-12-11.15-1.91-16.5.18-20.2c1.19-2.12,4.89,3.57,6.8,4.58s8.93,2.91,10.78,2.14,5.91-5.38,9.83-6.33,15.06,3.26,17.55,5.93.51,30.14.51,30.14,2.33,4.74,3.73,7c4.07,6.47,21.25,42.39,27.13,53.21a80.33,80.33,0,0,1,5.61,11.83c1.2,3.82-3.75,23.86-9.22,31.42-1.8,2.5-4.29,4.87-5.44,9.84S374.63,433,373.35,433.46Z" style="fill:#FFC100"></path><path d="M349.53,282c1.5-1.66,6.41-.13,9.38-7.52s2.53-11.45,3.39-11.56,5.5,13.24,2.53,20.95-8.85,9.44-9.49,9.44S348.91,282.65,349.53,282Z" style="fill:#FFC100"></path><path d="M363,273.13a31.2,31.2,0,0,0-.39-3.19c-.2-1.22-.56-2.42-.7-3.64,0-.12-.19-.08-.15,0a15.15,15.15,0,0,1,.51,3.91,34.28,34.28,0,0,1-.09,3.51,30.3,30.3,0,0,1-1.25,7.12,21.41,21.41,0,0,1-6.69,10.3c-.12.1.05.31.18.22C360.3,287.4,363.41,280.09,363,273.13Z" style="fill:#263238"></path><path d="M389.48,380.53c3.17,3.56,13.33,7.8,19.36,2.91S416,363.77,416,363.77s7.69,19.27,2.42,26-16.7,7.79-28.9-3.09Z" style="fill:#FFC100"></path><path d="M333.51,286.25c2.68,2-1.32,6.9-3.8,5S331.27,284.55,333.51,286.25Z" style="fill:#263238"></path><path d="M308.72,281.4c-1.09-.84-.73-6.94.86-8.14s8.09,7,7.51,8.55S309.9,282.32,308.72,281.4Z" style="fill:#263238"></path><path d="M374.38,348.49a18.25,18.25,0,0,1-10.6-2.33c-6.43-3.52-15.72-7.17-16.51-15.63-.62-6.61,10.05-14.33,10.23-14.47C361.87,322.75,369.31,337.26,374.38,348.49Z" style="opacity:0.1"></path><path d="M336.81,327.64C332.21,330,324.08,328,324,322c-.07-4.13,3.63-7.51,7.24-6.85a6.94,6.94,0,0,1,2.53.34C338,316.9,342.14,325,336.81,327.64Z" style="opacity:0.1"></path><path d="M344.07,338.7c1.93,2.92,1.27,8.57-2.79,9.13-2.78.38-5.37-1.85-5.21-4.34a4.39,4.39,0,0,1,0-1.73C336.72,338.78,341.84,335.31,344.07,338.7Z" style="opacity:0.1"></path><path d="M321.41,306.08c1.93.82,9.28,5.9,15.93,7.34s17.43-2.26,18.22-2.56,2.56,3.07,2.41,3.84-13.75,6-22,3.46-16.82-7.85-17-8.5S320.49,305.69,321.41,306.08Z" style="fill:#263238"></path><path d="M322.19,321.82S308.66,302.51,304.86,300s-17.28-4.93-19.07-2.86.85,7.47,2.35,8.83,11.05,3.63,11.9,4.11c.48.28-.52,12.47,4.41,23.06,3.67,7.87,8.33,13.16,8.78,13.37C314.28,347.06,321.47,323.29,322.19,321.82Z" style="fill:#FFC100"></path><path d="M325.58,322.29c.08,0,.11-.1,0-.13-.75-.27-1.51-.57-2.24-.91-.45-.21-.89-.42-1.33-.65-1.81-2.09-3.65-4.15-5.31-6.35-.06-.08-.19,0-.13.08,1.23,1.85,2.42,3.69,3.83,5.43a32.17,32.17,0,0,0,4.57,4.69c.08.06.22,0,.15-.12-.87-1.12-1.79-2.2-2.72-3.27.29.16.58.32.88.45A13.24,13.24,0,0,0,325.58,322.29Z" style="fill:#263238"></path><path d="M212.51,242.3c-1.38,14.6-1.76,45,4.34,54,3.05,4.49,31.18,15.24,38.92,15,3.22-.09,7.52-27.22,4.2-26.78-2.29.3-21.66.17-23.63-1.48s-8.7-29.11-11.8-41.17C220.64,226.64,213.69,229.94,212.51,242.3Z" style="fill:#d3766a"></path><path d="M257.72,284.81s10.31-1.44,17.09-2.07c3.78-.34,10.32-.37,13.22.65,4.33,1.52,21.49,10.63,19.37,14.84-1.92,3.81-15.67-5.9-15.67-5.9s14.74,8.57,11.58,12.73-17.22-8.87-17.22-8.87,14.94,9.14,11,12.92c-3,2.85-16.38-8.23-16.38-8.23s12.79,7.94,9.86,11c-3.24,3.39-16.26-6.06-16.26-6.06-8.76,6.54-15.6,6.07-20.43,5.16C252.72,310.76,257.72,284.81,257.72,284.81Z" style="fill:#d3766a"></path><path d="M286.83,289.05c1.76.94,3.56,1.88,5.24,3s3.31,2.25,4.88,3.5a34.1,34.1,0,0,1,5.64,5.44c-3.22-3.37-9.16-7.39-10.84-8.49s-3.29-2.28-5-3.37C286.74,289.08,286.79,289,286.83,289.05Z" style="fill:#263238"></path><path d="M282.76,295c2.2,1.3,4.44,2.51,6.58,3.91s4.05,2.91,6.08,4.44c.16.12,0,.17-.12.05-2.09-1.45-4.14-2.63-6.26-4.06s-4.17-2.94-6.32-4.29C282.69,295.06,282.72,295,282.76,295Z" style="fill:#263238"></path><path d="M278.34,299.54a57.3,57.3,0,0,1,9.61,6.75c.15.13,0,.17-.16,0-3.16-2.3-5.62-4.14-9.52-6.68C278.21,299.62,278.26,299.5,278.34,299.54Z" style="fill:#263238"></path><path d="M211.78,242.56c-1.26,9.6-1,46.05,1.69,52,3.5,7.8,33.35,17.81,33.35,17.81l10.74-29.24S238,282,237,281.41s-8.45-25.09-11.2-37.85C222.81,230,214.34,223.14,211.78,242.56Z" style="fill:#455a64"></path><path d="M252.43,284.78c-2,3.94-3.68,8.05-5.35,12.14s-3.21,8.13-4.57,12.29c0,.1.13.16.17.07,1.86-4,3.57-8.08,5.24-12.18s3.36-8.08,4.78-12.21C252.76,284.73,252.51,284.63,252.43,284.78Z" style="fill:#263238"></path><path d="M221,300.79c-2.52-1.75-5.21-3.57-6.71-6.34A12.8,12.8,0,0,1,213,289.4c-.17-2-.31-3.92-.47-5.88q-.83-10.61-1.15-21.27s0,0,0-.08,0-.16,0-.24c0-.54,0-1.09-.05-1.63-.1-4.36-.15-8.74-.15-13.1a.08.08,0,0,0-.16,0c-.17,3.52-.27,7-.32,10.55,0-.12,0-.24-.07-.36-.3-1.59-.61-3.17-.94-4.75,0-.12-.2-.06-.18.06.25,1.6.53,3.19.81,4.78.1.58.22,1.15.35,1.72q-.06,6.12.14,12.25.18,5.93.61,11.85.21,3.07.52,6.13a14,14,0,0,0,1.21,4.94c1.55,3.09,4.81,5,7.72,6.62C221,301.06,221.07,300.87,221,300.79Z" style="fill:#263238"></path><path d="M241.79,282a16.66,16.66,0,0,0-3.76-.43c-.11,0-.08.08,0,.1s3.09.36,3.72.38C241.81,282.08,241.81,282,241.79,282Z" style="fill:#263238"></path></g><g id="freepik--Hearts--inject-60"><path d="M287.81,180.91c1.14,7.4-3,15.2-3,15.2s-8.76,1.3-15.33-2.27c-5.48-3-7.52-8.93-4.71-12.52,4-5.16,11.62,2.84,11.62,2.84s-5-9.85,1.25-11.91C281.94,170.82,286.86,174.75,287.81,180.91Z" style="fill:#FFC100"></path><path d="M298.35,159.94c-3.3,4.4-9.56,6.21-9.56,6.21s-5.18-4-6.68-9.24c-1.25-4.42.84-8.55,4.18-8.92,4.78-.52,4.47,7.58,4.47,7.58s2.64-7.67,6.92-5.46C300.66,151.66,301.11,156.27,298.35,159.94Z" style="fill:#FFC100"></path></g><g id="freepik--Sign--inject-60"><rect x="96.44" y="55.1" width="170.45" height="80.88" style="fill:#FFC100"></rect><rect x="107.96" width="4.71" height="55.1" style="fill:#dbdbdb"></rect><rect x="250.67" width="4.71" height="55.1" style="fill:#dbdbdb"></rect><path d="M147.22,83.46h-6.08l-1.23,3.25a1.39,1.39,0,0,1-1.3.87,1.47,1.47,0,0,1-.48-.07,1.42,1.42,0,0,1-.82-1.8L142.84,71a1.4,1.4,0,0,1,1.32-.88,1.38,1.38,0,0,1,1.33.88L151,85.71a1.42,1.42,0,0,1-.82,1.8,1.39,1.39,0,0,1-.48.07,1.35,1.35,0,0,1-1.28-.87Zm-1-2.76-2-5.38-2,5.38Z" style="fill:#263238"></path><path d="M157.2,86.21a1.36,1.36,0,1,1-2.72,0V71.64a1.34,1.34,0,0,1,.55-1.15,1.38,1.38,0,0,1,1.9.3L165,82V71.67a1.36,1.36,0,0,1,1.35-1.35,1.38,1.38,0,0,1,1.38,1.35V86.21a1.39,1.39,0,0,1-1.38,1.37,1.35,1.35,0,0,1-1-.5.87.87,0,0,1-.13-.15l-8-11.11Z" style="fill:#263238"></path><path d="M173.05,71.44a1.35,1.35,0,0,1,1.37-1.37,1.39,1.39,0,0,1,1.4,1.37V86.21a1.39,1.39,0,0,1-1.4,1.37,1.35,1.35,0,0,1-1.37-1.37Z" style="fill:#263238"></path><path d="M195.57,71.44V86.21a1.4,1.4,0,0,1-1.4,1.37,1.37,1.37,0,0,1-1.38-1.37V75.67l-3.6,5a1.39,1.39,0,0,1-1.13.57H188a1.43,1.43,0,0,1-1.15-.57l-3.58-5V86.21a1.39,1.39,0,0,1-2.78,0V71.44a1.39,1.39,0,0,1,1.38-1.37H182a1.36,1.36,0,0,1,1.1.57l5,6.91,5-6.91a1.36,1.36,0,0,1,1.12-.57h0A1.42,1.42,0,0,1,195.57,71.44Z" style="fill:#263238"></path><path d="M208.93,83.46h-6.08l-1.22,3.25a1.4,1.4,0,0,1-1.3.87,1.47,1.47,0,0,1-.48-.07,1.43,1.43,0,0,1-.83-1.8L204.56,71a1.44,1.44,0,0,1,2.65,0l5.53,14.74a1.42,1.42,0,0,1-.83,1.8,1.33,1.33,0,0,1-.47.07,1.35,1.35,0,0,1-1.28-.87Zm-1-2.76-2-5.38-2,5.38Z" style="fill:#263238"></path><path d="M216.17,86.21V71.44a1.37,1.37,0,0,1,1.37-1.37A1.39,1.39,0,0,1,219,71.44V84.81h6.78a1.39,1.39,0,0,1,0,2.77h-8.19A1.37,1.37,0,0,1,216.17,86.21Z" style="fill:#263238"></path><path d="M129.69,113.26a1.3,1.3,0,0,1,1.82-.17,8.17,8.17,0,0,0,4.78,1.92,5.4,5.4,0,0,0,3.13-.92,2.26,2.26,0,0,0,1.08-1.8,1.42,1.42,0,0,0-.23-.8,2.42,2.42,0,0,0-.75-.76,10,10,0,0,0-3.43-1.17H136a13.79,13.79,0,0,1-3.22-1,5.3,5.3,0,0,1-2.33-2,3.8,3.8,0,0,1-.58-2,4.62,4.62,0,0,1,2-3.65,7.36,7.36,0,0,1,4.33-1.33,9.85,9.85,0,0,1,5.46,2,1.3,1.3,0,0,1,.35,1.78,1.27,1.27,0,0,1-1.78.37,7.24,7.24,0,0,0-4-1.6,4.8,4.8,0,0,0-2.8.85,2,2,0,0,0-.95,1.58,1.25,1.25,0,0,0,.17.7,2.51,2.51,0,0,0,.68.65,8.64,8.64,0,0,0,3.13,1.1h.05a14.87,14.87,0,0,1,3.45,1,5.76,5.76,0,0,1,2.5,2.08,4,4,0,0,1,.61,2.13,4.84,4.84,0,0,1-2.16,3.87,7.75,7.75,0,0,1-4.63,1.43,10.7,10.7,0,0,1-6.4-2.5A1.33,1.33,0,0,1,129.69,113.26Z" style="fill:#263238"></path><path d="M146.93,116.24V101.48a1.36,1.36,0,0,1,1.38-1.38,1.38,1.38,0,0,1,1.4,1.38v6h6.48v-6a1.36,1.36,0,0,1,1.38-1.38,1.38,1.38,0,0,1,1.4,1.38v14.76a1.38,1.38,0,0,1-1.4,1.38,1.36,1.36,0,0,1-1.38-1.38v-6h-6.48v6a1.38,1.38,0,0,1-1.4,1.38A1.36,1.36,0,0,1,146.93,116.24Z" style="fill:#263238"></path><path d="M164.67,116.24V101.48a1.36,1.36,0,0,1,1.38-1.38h8.18a1.39,1.39,0,0,1,1.38,1.38,1.41,1.41,0,0,1-1.38,1.4h-6.78v4.58h5.83a1.39,1.39,0,0,1,0,2.77h-5.83v4.61h6.78a1.39,1.39,0,0,1,0,2.78h-8.1s0,0,0,0l0,0A1.38,1.38,0,0,1,164.67,116.24Z" style="fill:#263238"></path><path d="M179.52,116.24V101.48a1.37,1.37,0,0,1,1.37-1.38,1.39,1.39,0,0,1,1.4,1.38v13.36h6.78a1.39,1.39,0,0,1,0,2.78h-8.18A1.37,1.37,0,0,1,179.52,116.24Z" style="fill:#263238"></path><path d="M201.81,102.88h-4v13.36a1.38,1.38,0,0,1-2.76,0V102.88h-4a1.39,1.39,0,0,1-1.38-1.4,1.36,1.36,0,0,1,1.38-1.38h10.68a1.38,1.38,0,0,1,1.38,1.38A1.41,1.41,0,0,1,201.81,102.88Z" style="fill:#263238"></path><path d="M207.32,116.24V101.48a1.36,1.36,0,0,1,1.38-1.38h8.18a1.39,1.39,0,0,1,1.38,1.38,1.41,1.41,0,0,1-1.38,1.4H210.1v4.58h5.83a1.39,1.39,0,0,1,0,2.77H210.1v4.61h6.78a1.39,1.39,0,0,1,0,2.78h-8.11c-.05,0-.05,0-.05,0l0,0A1.38,1.38,0,0,1,207.32,116.24Z" style="fill:#263238"></path><path d="M234.25,115.54a1.38,1.38,0,0,1-.88,1.75,1.94,1.94,0,0,1-.55.08h0a1.8,1.8,0,0,1-1-.28,2.49,2.49,0,0,1-.8-.87,6.76,6.76,0,0,1-.53-3,2,2,0,0,0-.3-1.07,2.28,2.28,0,0,0-.75-.73,4.65,4.65,0,0,0-1.4-.6h-2.95v5.43a1.4,1.4,0,0,1-1.4,1.38,1.38,1.38,0,0,1-1.38-1.38V101.48a1.36,1.36,0,0,1,1.38-1.38h4.48a5.35,5.35,0,0,1,3.4,9.48,3.73,3.73,0,0,1,.88.93,4.74,4.74,0,0,1,.82,2.7,6.66,6.66,0,0,0,.1,1.48A1.33,1.33,0,0,1,234.25,115.54Zm-3.5-10.06a2.58,2.58,0,0,0-2.58-2.6h-3.08V108h3.08A2.57,2.57,0,0,0,230.75,105.48Z" style="fill:#263238"></path><path d="M245.51,84.53c-2,1.49-2.15-1.81-4.71-2.6s-4.52,1.89-5.37-.47,3.58-9.54,8-8.19S247.51,83.06,245.51,84.53Z" style="fill:#263238"></path><path d="M237.74,71.42c.67,1.52.36,3.13-.71,3.6s-2.46-.38-3.13-1.9-.36-3.13.7-3.6S237.07,69.9,237.74,71.42Z" style="fill:#263238"></path><path d="M243.56,69c0,1.66-.93,3-2.09,3s-2.11-1.33-2.12-3,.93-3,2.09-3S243.55,67.36,243.56,69Z" style="fill:#263238"></path><path d="M249.2,74.91c-1.41.89-2,2.4-1.42,3.38s2.25,1.06,3.66.18,2-2.4,1.42-3.38S250.6,74,249.2,74.91Z" style="fill:#263238"></path><path d="M245.71,69.67c-.93,1.38-.91,3,0,3.67s2.5.07,3.43-1.3.91-3-.05-3.67S246.64,68.3,245.71,69.67Z" style="fill:#263238"></path><path d="M125.81,99.12c-.5,2.45-2.81.09-5.24,1.23s-2.09,4.43-4.3,3.25-3.75-9.48.45-11.45S126.31,96.68,125.81,99.12Z" style="fill:#263238"></path><path d="M111.25,94.6c1.52.68,2.36,2.09,1.89,3.15s-2.09,1.37-3.6.69-2.36-2.08-1.89-3.14S109.74,93.93,111.25,94.6Z" style="fill:#263238"></path><path d="M114,88.92c1.12,1.23,1.33,2.85.47,3.64s-2.45.42-3.57-.8-1.33-2.85-.48-3.64S112.83,87.7,114,88.92Z" style="fill:#263238"></path><path d="M122.09,89.51c-.45,1.6.09,3.15,1.21,3.46s2.39-.73,2.84-2.32-.1-3.15-1.22-3.46S122.54,87.92,122.09,89.51Z" style="fill:#263238"></path><path d="M116,88c.23,1.64,1.35,2.84,2.5,2.68s1.89-1.62,1.66-3.26-1.34-2.85-2.49-2.69S115.76,86.32,116,88Z" style="fill:#263238"></path></g></svg>